<svg xmlns="http://www.w3.org/2000/svg" xmlns:xlink="http://www.w3.org/1999/xlink" width="400" zoomAndPan="magnify" viewBox="0 0 300 112.499997" height="150" preserveAspectRatio="xMidYMid meet" version="1.0"><defs><g/><clipPath id="53448c0c31"><path d="M 19.644531 21.15625 L 292.929688 21.15625 L 292.929688 93 L 19.644531 93 Z M 19.644531 21.15625 " clip-rule="nonzero"/></clipPath><clipPath id="626865a4ed"><path d="M 19.644531 21.15625 L 292.929688 21.15625 L 292.929688 93.582031 L 19.644531 93.582031 Z M 19.644531 21.15625 " clip-rule="nonzero"/></clipPath></defs><path fill="#38b6ff" d="M 80.472656 57.007812 L 80.472656 92.855469 L 111.070312 92.855469 L 111.070312 57.007812 Z M 110.695312 57.007812 L 110.695312 92.855469 L 141.292969 92.855469 L 141.292969 57.007812 Z M 140.921875 57.007812 L 140.921875 92.855469 L 171.515625 92.855469 L 171.515625 57.007812 Z M 171.144531 57.007812 L 171.144531 92.855469 L 201.742188 92.855469 L 201.742188 57.007812 Z M 201.367188 57.007812 L 201.367188 92.855469 L 231.964844 92.855469 L 231.964844 57.007812 Z M 201.367188 57.007812 " fill-opacity="1" fill-rule="nonzero"/><g fill="#000000" fill-opacity="1"><g transform="translate(27.823286, 43.651266)"><g><path d="M 4.90625 0 L 3.6875 0 L 3.6875 -6.296875 C 3.6875 -6.492188 3.6875 -6.703125 3.6875 -6.921875 C 3.695312 -7.148438 3.703125 -7.375 3.703125 -7.59375 C 3.710938 -7.820312 3.71875 -8.035156 3.71875 -8.234375 C 3.726562 -8.441406 3.738281 -8.625 3.75 -8.78125 C 3.664062 -8.695312 3.59375 -8.625 3.53125 -8.5625 C 3.476562 -8.507812 3.421875 -8.453125 3.359375 -8.390625 C 3.296875 -8.335938 3.226562 -8.28125 3.15625 -8.21875 C 3.09375 -8.15625 3.007812 -8.082031 2.90625 -8 L 1.890625 -7.171875 L 1.234375 -8.015625 L 3.875 -10.078125 L 4.90625 -10.078125 Z M 4.90625 0 "/></g></g></g><g fill="#000000" fill-opacity="1"><g transform="translate(35.602443, 43.651266)"><g><path d="M 7.125 -5.0625 C 7.125 -4.238281 7.0625 -3.503906 6.9375 -2.859375 C 6.820312 -2.222656 6.632812 -1.679688 6.375 -1.234375 C 6.113281 -0.785156 5.78125 -0.441406 5.375 -0.203125 C 4.96875 0.0234375 4.472656 0.140625 3.890625 0.140625 C 3.335938 0.140625 2.859375 0.0234375 2.453125 -0.203125 C 2.054688 -0.441406 1.722656 -0.785156 1.453125 -1.234375 C 1.191406 -1.679688 0.992188 -2.222656 0.859375 -2.859375 C 0.734375 -3.503906 0.671875 -4.238281 0.671875 -5.0625 C 0.671875 -5.875 0.726562 -6.597656 0.84375 -7.234375 C 0.96875 -7.878906 1.15625 -8.421875 1.40625 -8.859375 C 1.664062 -9.304688 2 -9.644531 2.40625 -9.875 C 2.8125 -10.113281 3.304688 -10.234375 3.890625 -10.234375 C 4.429688 -10.234375 4.90625 -10.117188 5.3125 -9.890625 C 5.71875 -9.660156 6.050781 -9.320312 6.3125 -8.875 C 6.582031 -8.4375 6.785156 -7.894531 6.921875 -7.25 C 7.054688 -6.601562 7.125 -5.875 7.125 -5.0625 Z M 1.953125 -5.0625 C 1.953125 -4.363281 1.984375 -3.753906 2.046875 -3.234375 C 2.117188 -2.722656 2.226562 -2.296875 2.375 -1.953125 C 2.53125 -1.617188 2.734375 -1.363281 2.984375 -1.1875 C 3.234375 -1.019531 3.535156 -0.9375 3.890625 -0.9375 C 4.242188 -0.9375 4.539062 -1.019531 4.78125 -1.1875 C 5.03125 -1.351562 5.234375 -1.609375 5.390625 -1.953125 C 5.554688 -2.296875 5.671875 -2.722656 5.734375 -3.234375 C 5.804688 -3.753906 5.84375 -4.363281 5.84375 -5.0625 C 5.84375 -5.75 5.804688 -6.347656 5.734375 -6.859375 C 5.671875 -7.378906 5.554688 -7.804688 5.390625 -8.140625 C 5.234375 -8.484375 5.03125 -8.738281 4.78125 -8.90625 C 4.539062 -9.082031 4.242188 -9.171875 3.890625 -9.171875 C 3.535156 -9.171875 3.234375 -9.082031 2.984375 -8.90625 C 2.734375 -8.738281 2.53125 -8.484375 2.375 -8.140625 C 2.226562 -7.804688 2.117188 -7.378906 2.046875 -6.859375 C 1.984375 -6.347656 1.953125 -5.75 1.953125 -5.0625 Z M 1.953125 -5.0625 "/></g></g></g><g fill="#000000" fill-opacity="1"><g transform="translate(61.936515, 43.651266)"><g><path d="M 3.765625 -6.1875 C 4.210938 -6.1875 4.632812 -6.125 5.03125 -6 C 5.425781 -5.875 5.769531 -5.6875 6.0625 -5.4375 C 6.351562 -5.1875 6.582031 -4.875 6.75 -4.5 C 6.914062 -4.132812 7 -3.710938 7 -3.234375 C 7 -2.710938 6.921875 -2.238281 6.765625 -1.8125 C 6.609375 -1.394531 6.375 -1.039062 6.0625 -0.75 C 5.75 -0.46875 5.363281 -0.25 4.90625 -0.09375 C 4.457031 0.0625 3.941406 0.140625 3.359375 0.140625 C 3.117188 0.140625 2.882812 0.125 2.65625 0.09375 C 2.4375 0.0703125 2.222656 0.0390625 2.015625 0 C 1.804688 -0.0390625 1.601562 -0.09375 1.40625 -0.15625 C 1.21875 -0.226562 1.050781 -0.3125 0.90625 -0.40625 L 0.90625 -1.59375 C 1.050781 -1.488281 1.226562 -1.394531 1.4375 -1.3125 C 1.644531 -1.226562 1.859375 -1.15625 2.078125 -1.09375 C 2.304688 -1.039062 2.535156 -1 2.765625 -0.96875 C 2.992188 -0.945312 3.203125 -0.9375 3.390625 -0.9375 C 3.753906 -0.9375 4.078125 -0.976562 4.359375 -1.0625 C 4.648438 -1.144531 4.894531 -1.273438 5.09375 -1.453125 C 5.289062 -1.628906 5.441406 -1.851562 5.546875 -2.125 C 5.648438 -2.394531 5.703125 -2.71875 5.703125 -3.09375 C 5.703125 -3.75 5.5 -4.25 5.09375 -4.59375 C 4.6875 -4.945312 4.097656 -5.125 3.328125 -5.125 C 3.203125 -5.125 3.066406 -5.117188 2.921875 -5.109375 C 2.773438 -5.097656 2.628906 -5.082031 2.484375 -5.0625 C 2.347656 -5.039062 2.210938 -5.019531 2.078125 -5 C 1.953125 -4.976562 1.835938 -4.957031 1.734375 -4.9375 L 1.125 -5.34375 L 1.5 -10.078125 L 6.25 -10.078125 L 6.25 -8.9375 L 2.59375 -8.9375 L 2.3125 -6.046875 C 2.457031 -6.078125 2.648438 -6.109375 2.890625 -6.140625 C 3.140625 -6.171875 3.429688 -6.1875 3.765625 -6.1875 Z M 3.765625 -6.1875 "/></g></g></g><g fill="#000000" fill-opacity="1"><g transform="translate(92.160561, 43.651266)"><g><path d="M 3.765625 -6.1875 C 4.210938 -6.1875 4.632812 -6.125 5.03125 -6 C 5.425781 -5.875 5.769531 -5.6875 6.0625 -5.4375 C 6.351562 -5.1875 6.582031 -4.875 6.75 -4.5 C 6.914062 -4.132812 7 -3.710938 7 -3.234375 C 7 -2.710938 6.921875 -2.238281 6.765625 -1.8125 C 6.609375 -1.394531 6.375 -1.039062 6.0625 -0.75 C 5.75 -0.46875 5.363281 -0.25 4.90625 -0.09375 C 4.457031 0.0625 3.941406 0.140625 3.359375 0.140625 C 3.117188 0.140625 2.882812 0.125 2.65625 0.09375 C 2.4375 0.0703125 2.222656 0.0390625 2.015625 0 C 1.804688 -0.0390625 1.601562 -0.09375 1.40625 -0.15625 C 1.21875 -0.226562 1.050781 -0.3125 0.90625 -0.40625 L 0.90625 -1.59375 C 1.050781 -1.488281 1.226562 -1.394531 1.4375 -1.3125 C 1.644531 -1.226562 1.859375 -1.15625 2.078125 -1.09375 C 2.304688 -1.039062 2.535156 -1 2.765625 -0.96875 C 2.992188 -0.945312 3.203125 -0.9375 3.390625 -0.9375 C 3.753906 -0.9375 4.078125 -0.976562 4.359375 -1.0625 C 4.648438 -1.144531 4.894531 -1.273438 5.09375 -1.453125 C 5.289062 -1.628906 5.441406 -1.851562 5.546875 -2.125 C 5.648438 -2.394531 5.703125 -2.71875 5.703125 -3.09375 C 5.703125 -3.75 5.5 -4.25 5.09375 -4.59375 C 4.6875 -4.945312 4.097656 -5.125 3.328125 -5.125 C 3.203125 -5.125 3.066406 -5.117188 2.921875 -5.109375 C 2.773438 -5.097656 2.628906 -5.082031 2.484375 -5.0625 C 2.347656 -5.039062 2.210938 -5.019531 2.078125 -5 C 1.953125 -4.976562 1.835938 -4.957031 1.734375 -4.9375 L 1.125 -5.34375 L 1.5 -10.078125 L 6.25 -10.078125 L 6.25 -8.9375 L 2.59375 -8.9375 L 2.3125 -6.046875 C 2.457031 -6.078125 2.648438 -6.109375 2.890625 -6.140625 C 3.140625 -6.171875 3.429688 -6.1875 3.765625 -6.1875 Z M 3.765625 -6.1875 "/></g></g></g><g fill="#000000" fill-opacity="1"><g transform="translate(122.384612, 43.651266)"><g><path d="M 3.765625 -6.1875 C 4.210938 -6.1875 4.632812 -6.125 5.03125 -6 C 5.425781 -5.875 5.769531 -5.6875 6.0625 -5.4375 C 6.351562 -5.1875 6.582031 -4.875 6.75 -4.5 C 6.914062 -4.132812 7 -3.710938 7 -3.234375 C 7 -2.710938 6.921875 -2.238281 6.765625 -1.8125 C 6.609375 -1.394531 6.375 -1.039062 6.0625 -0.75 C 5.75 -0.46875 5.363281 -0.25 4.90625 -0.09375 C 4.457031 0.0625 3.941406 0.140625 3.359375 0.140625 C 3.117188 0.140625 2.882812 0.125 2.65625 0.09375 C 2.4375 0.0703125 2.222656 0.0390625 2.015625 0 C 1.804688 -0.0390625 1.601562 -0.09375 1.40625 -0.15625 C 1.21875 -0.226562 1.050781 -0.3125 0.90625 -0.40625 L 0.90625 -1.59375 C 1.050781 -1.488281 1.226562 -1.394531 1.4375 -1.3125 C 1.644531 -1.226562 1.859375 -1.15625 2.078125 -1.09375 C 2.304688 -1.039062 2.535156 -1 2.765625 -0.96875 C 2.992188 -0.945312 3.203125 -0.9375 3.390625 -0.9375 C 3.753906 -0.9375 4.078125 -0.976562 4.359375 -1.0625 C 4.648438 -1.144531 4.894531 -1.273438 5.09375 -1.453125 C 5.289062 -1.628906 5.441406 -1.851562 5.546875 -2.125 C 5.648438 -2.394531 5.703125 -2.71875 5.703125 -3.09375 C 5.703125 -3.75 5.5 -4.25 5.09375 -4.59375 C 4.6875 -4.945312 4.097656 -5.125 3.328125 -5.125 C 3.203125 -5.125 3.066406 -5.117188 2.921875 -5.109375 C 2.773438 -5.097656 2.628906 -5.082031 2.484375 -5.0625 C 2.347656 -5.039062 2.210938 -5.019531 2.078125 -5 C 1.953125 -4.976562 1.835938 -4.957031 1.734375 -4.9375 L 1.125 -5.34375 L 1.5 -10.078125 L 6.25 -10.078125 L 6.25 -8.9375 L 2.59375 -8.9375 L 2.3125 -6.046875 C 2.457031 -6.078125 2.648438 -6.109375 2.890625 -6.140625 C 3.140625 -6.171875 3.429688 -6.1875 3.765625 -6.1875 Z M 3.765625 -6.1875 "/></g></g></g><g fill="#000000" fill-opacity="1"><g transform="translate(152.608646, 43.651266)"><g><path d="M 7.125 -5.0625 C 7.125 -4.238281 7.0625 -3.503906 6.9375 -2.859375 C 6.820312 -2.222656 6.632812 -1.679688 6.375 -1.234375 C 6.113281 -0.785156 5.78125 -0.441406 5.375 -0.203125 C 4.96875 0.0234375 4.472656 0.140625 3.890625 0.140625 C 3.335938 0.140625 2.859375 0.0234375 2.453125 -0.203125 C 2.054688 -0.441406 1.722656 -0.785156 1.453125 -1.234375 C 1.191406 -1.679688 0.992188 -2.222656 0.859375 -2.859375 C 0.734375 -3.503906 0.671875 -4.238281 0.671875 -5.0625 C 0.671875 -5.875 0.726562 -6.597656 0.84375 -7.234375 C 0.96875 -7.878906 1.15625 -8.421875 1.40625 -8.859375 C 1.664062 -9.304688 2 -9.644531 2.40625 -9.875 C 2.8125 -10.113281 3.304688 -10.234375 3.890625 -10.234375 C 4.429688 -10.234375 4.90625 -10.117188 5.3125 -9.890625 C 5.71875 -9.660156 6.050781 -9.320312 6.3125 -8.875 C 6.582031 -8.4375 6.785156 -7.894531 6.921875 -7.25 C 7.054688 -6.601562 7.125 -5.875 7.125 -5.0625 Z M 1.953125 -5.0625 C 1.953125 -4.363281 1.984375 -3.753906 2.046875 -3.234375 C 2.117188 -2.722656 2.226562 -2.296875 2.375 -1.953125 C 2.53125 -1.617188 2.734375 -1.363281 2.984375 -1.1875 C 3.234375 -1.019531 3.535156 -0.9375 3.890625 -0.9375 C 4.242188 -0.9375 4.539062 -1.019531 4.78125 -1.1875 C 5.03125 -1.351562 5.234375 -1.609375 5.390625 -1.953125 C 5.554688 -2.296875 5.671875 -2.722656 5.734375 -3.234375 C 5.804688 -3.753906 5.84375 -4.363281 5.84375 -5.0625 C 5.84375 -5.75 5.804688 -6.347656 5.734375 -6.859375 C 5.671875 -7.378906 5.554688 -7.804688 5.390625 -8.140625 C 5.234375 -8.484375 5.03125 -8.738281 4.78125 -8.90625 C 4.539062 -9.082031 4.242188 -9.171875 3.890625 -9.171875 C 3.535156 -9.171875 3.234375 -9.082031 2.984375 -8.90625 C 2.734375 -8.738281 2.53125 -8.484375 2.375 -8.140625 C 2.226562 -7.804688 2.117188 -7.378906 2.046875 -6.859375 C 1.984375 -6.347656 1.953125 -5.75 1.953125 -5.0625 Z M 1.953125 -5.0625 "/></g></g></g><g fill="#000000" fill-opacity="1"><g transform="translate(180.556993, 43.651266)"><g><path d="M 0.5625 -3.203125 L 0.5625 -4.359375 L 3.984375 -4.359375 L 3.984375 -3.203125 Z M 0.5625 -3.203125 "/></g></g></g><g fill="#000000" fill-opacity="1"><g transform="translate(185.101737, 43.651266)"><g><path d="M 7.09375 -5.78125 C 7.09375 -5.300781 7.066406 -4.816406 7.015625 -4.328125 C 6.960938 -3.847656 6.875 -3.390625 6.75 -2.953125 C 6.632812 -2.515625 6.46875 -2.109375 6.25 -1.734375 C 6.039062 -1.359375 5.773438 -1.03125 5.453125 -0.75 C 5.128906 -0.476562 4.738281 -0.257812 4.28125 -0.09375 C 3.820312 0.0625 3.289062 0.140625 2.6875 0.140625 C 2.59375 0.140625 2.492188 0.132812 2.390625 0.125 C 2.285156 0.125 2.179688 0.117188 2.078125 0.109375 C 1.972656 0.0976562 1.867188 0.0820312 1.765625 0.0625 C 1.660156 0.0507812 1.570312 0.0351562 1.5 0.015625 L 1.5 -1.0625 C 1.65625 -1 1.832031 -0.953125 2.03125 -0.921875 C 2.238281 -0.898438 2.441406 -0.890625 2.640625 -0.890625 C 3.265625 -0.890625 3.773438 -0.992188 4.171875 -1.203125 C 4.566406 -1.421875 4.878906 -1.71875 5.109375 -2.09375 C 5.347656 -2.46875 5.515625 -2.898438 5.609375 -3.390625 C 5.710938 -3.878906 5.78125 -4.394531 5.8125 -4.9375 L 5.71875 -4.9375 C 5.625 -4.78125 5.507812 -4.628906 5.375 -4.484375 C 5.25 -4.335938 5.097656 -4.210938 4.921875 -4.109375 C 4.753906 -4.003906 4.554688 -3.921875 4.328125 -3.859375 C 4.109375 -3.796875 3.863281 -3.765625 3.59375 -3.765625 C 3.15625 -3.765625 2.757812 -3.832031 2.40625 -3.96875 C 2.0625 -4.101562 1.765625 -4.300781 1.515625 -4.5625 C 1.265625 -4.832031 1.070312 -5.15625 0.9375 -5.53125 C 0.800781 -5.914062 0.734375 -6.347656 0.734375 -6.828125 C 0.734375 -7.359375 0.804688 -7.832031 0.953125 -8.25 C 1.097656 -8.675781 1.300781 -9.035156 1.5625 -9.328125 C 1.820312 -9.617188 2.140625 -9.84375 2.515625 -10 C 2.898438 -10.15625 3.328125 -10.234375 3.796875 -10.234375 C 4.265625 -10.234375 4.695312 -10.140625 5.09375 -9.953125 C 5.5 -9.773438 5.847656 -9.503906 6.140625 -9.140625 C 6.429688 -8.773438 6.660156 -8.3125 6.828125 -7.75 C 7.003906 -7.1875 7.09375 -6.53125 7.09375 -5.78125 Z M 3.8125 -9.171875 C 3.539062 -9.171875 3.289062 -9.125 3.0625 -9.03125 C 2.832031 -8.9375 2.632812 -8.789062 2.46875 -8.59375 C 2.300781 -8.40625 2.171875 -8.164062 2.078125 -7.875 C 1.992188 -7.582031 1.953125 -7.234375 1.953125 -6.828125 C 1.953125 -6.515625 1.988281 -6.226562 2.0625 -5.96875 C 2.132812 -5.71875 2.25 -5.5 2.40625 -5.3125 C 2.5625 -5.132812 2.75 -5 2.96875 -4.90625 C 3.195312 -4.8125 3.460938 -4.765625 3.765625 -4.765625 C 4.078125 -4.765625 4.359375 -4.816406 4.609375 -4.921875 C 4.867188 -5.023438 5.085938 -5.160156 5.265625 -5.328125 C 5.441406 -5.503906 5.578125 -5.703125 5.671875 -5.921875 C 5.773438 -6.148438 5.828125 -6.375 5.828125 -6.59375 C 5.828125 -6.90625 5.785156 -7.210938 5.703125 -7.515625 C 5.617188 -7.816406 5.492188 -8.085938 5.328125 -8.328125 C 5.160156 -8.578125 4.945312 -8.78125 4.6875 -8.9375 C 4.4375 -9.09375 4.144531 -9.171875 3.8125 -9.171875 Z M 3.8125 -9.171875 "/></g></g></g><g fill="#000000" fill-opacity="1"><g transform="translate(213.056746, 43.651266)"><g><path d="M 3.765625 -6.1875 C 4.210938 -6.1875 4.632812 -6.125 5.03125 -6 C 5.425781 -5.875 5.769531 -5.6875 6.0625 -5.4375 C 6.351562 -5.1875 6.582031 -4.875 6.75 -4.5 C 6.914062 -4.132812 7 -3.710938 7 -3.234375 C 7 -2.710938 6.921875 -2.238281 6.765625 -1.8125 C 6.609375 -1.394531 6.375 -1.039062 6.0625 -0.75 C 5.75 -0.46875 5.363281 -0.25 4.90625 -0.09375 C 4.457031 0.0625 3.941406 0.140625 3.359375 0.140625 C 3.117188 0.140625 2.882812 0.125 2.65625 0.09375 C 2.4375 0.0703125 2.222656 0.0390625 2.015625 0 C 1.804688 -0.0390625 1.601562 -0.09375 1.40625 -0.15625 C 1.21875 -0.226562 1.050781 -0.3125 0.90625 -0.40625 L 0.90625 -1.59375 C 1.050781 -1.488281 1.226562 -1.394531 1.4375 -1.3125 C 1.644531 -1.226562 1.859375 -1.15625 2.078125 -1.09375 C 2.304688 -1.039062 2.535156 -1 2.765625 -0.96875 C 2.992188 -0.945312 3.203125 -0.9375 3.390625 -0.9375 C 3.753906 -0.9375 4.078125 -0.976562 4.359375 -1.0625 C 4.648438 -1.144531 4.894531 -1.273438 5.09375 -1.453125 C 5.289062 -1.628906 5.441406 -1.851562 5.546875 -2.125 C 5.648438 -2.394531 5.703125 -2.71875 5.703125 -3.09375 C 5.703125 -3.75 5.5 -4.25 5.09375 -4.59375 C 4.6875 -4.945312 4.097656 -5.125 3.328125 -5.125 C 3.203125 -5.125 3.066406 -5.117188 2.921875 -5.109375 C 2.773438 -5.097656 2.628906 -5.082031 2.484375 -5.0625 C 2.347656 -5.039062 2.210938 -5.019531 2.078125 -5 C 1.953125 -4.976562 1.835938 -4.957031 1.734375 -4.9375 L 1.125 -5.34375 L 1.5 -10.078125 L 6.25 -10.078125 L 6.25 -8.9375 L 2.59375 -8.9375 L 2.3125 -6.046875 C 2.457031 -6.078125 2.648438 -6.109375 2.890625 -6.140625 C 3.140625 -6.171875 3.429688 -6.1875 3.765625 -6.1875 Z M 3.765625 -6.1875 "/></g></g></g><g fill="#000000" fill-opacity="1"><g transform="translate(243.28079, 43.651266)"><g><path d="M 3.765625 -6.1875 C 4.210938 -6.1875 4.632812 -6.125 5.03125 -6 C 5.425781 -5.875 5.769531 -5.6875 6.0625 -5.4375 C 6.351562 -5.1875 6.582031 -4.875 6.75 -4.5 C 6.914062 -4.132812 7 -3.710938 7 -3.234375 C 7 -2.710938 6.921875 -2.238281 6.765625 -1.8125 C 6.609375 -1.394531 6.375 -1.039062 6.0625 -0.75 C 5.75 -0.46875 5.363281 -0.25 4.90625 -0.09375 C 4.457031 0.0625 3.941406 0.140625 3.359375 0.140625 C 3.117188 0.140625 2.882812 0.125 2.65625 0.09375 C 2.4375 0.0703125 2.222656 0.0390625 2.015625 0 C 1.804688 -0.0390625 1.601562 -0.09375 1.40625 -0.15625 C 1.21875 -0.226562 1.050781 -0.3125 0.90625 -0.40625 L 0.90625 -1.59375 C 1.050781 -1.488281 1.226562 -1.394531 1.4375 -1.3125 C 1.644531 -1.226562 1.859375 -1.15625 2.078125 -1.09375 C 2.304688 -1.039062 2.535156 -1 2.765625 -0.96875 C 2.992188 -0.945312 3.203125 -0.9375 3.390625 -0.9375 C 3.753906 -0.9375 4.078125 -0.976562 4.359375 -1.0625 C 4.648438 -1.144531 4.894531 -1.273438 5.09375 -1.453125 C 5.289062 -1.628906 5.441406 -1.851562 5.546875 -2.125 C 5.648438 -2.394531 5.703125 -2.71875 5.703125 -3.09375 C 5.703125 -3.75 5.5 -4.25 5.09375 -4.59375 C 4.6875 -4.945312 4.097656 -5.125 3.328125 -5.125 C 3.203125 -5.125 3.066406 -5.117188 2.921875 -5.109375 C 2.773438 -5.097656 2.628906 -5.082031 2.484375 -5.0625 C 2.347656 -5.039062 2.210938 -5.019531 2.078125 -5 C 1.953125 -4.976562 1.835938 -4.957031 1.734375 -4.9375 L 1.125 -5.34375 L 1.5 -10.078125 L 6.25 -10.078125 L 6.25 -8.9375 L 2.59375 -8.9375 L 2.3125 -6.046875 C 2.457031 -6.078125 2.648438 -6.109375 2.890625 -6.140625 C 3.140625 -6.171875 3.429688 -6.1875 3.765625 -6.1875 Z M 3.765625 -6.1875 "/></g></g></g><g fill="#000000" fill-opacity="1"><g transform="translate(273.504817, 43.651266)"><g><path d="M 3.765625 -6.1875 C 4.210938 -6.1875 4.632812 -6.125 5.03125 -6 C 5.425781 -5.875 5.769531 -5.6875 6.0625 -5.4375 C 6.351562 -5.1875 6.582031 -4.875 6.75 -4.5 C 6.914062 -4.132812 7 -3.710938 7 -3.234375 C 7 -2.710938 6.921875 -2.238281 6.765625 -1.8125 C 6.609375 -1.394531 6.375 -1.039062 6.0625 -0.75 C 5.75 -0.46875 5.363281 -0.25 4.90625 -0.09375 C 4.457031 0.0625 3.941406 0.140625 3.359375 0.140625 C 3.117188 0.140625 2.882812 0.125 2.65625 0.09375 C 2.4375 0.0703125 2.222656 0.0390625 2.015625 0 C 1.804688 -0.0390625 1.601562 -0.09375 1.40625 -0.15625 C 1.21875 -0.226562 1.050781 -0.3125 0.90625 -0.40625 L 0.90625 -1.59375 C 1.050781 -1.488281 1.226562 -1.394531 1.4375 -1.3125 C 1.644531 -1.226562 1.859375 -1.15625 2.078125 -1.09375 C 2.304688 -1.039062 2.535156 -1 2.765625 -0.96875 C 2.992188 -0.945312 3.203125 -0.9375 3.390625 -0.9375 C 3.753906 -0.9375 4.078125 -0.976562 4.359375 -1.0625 C 4.648438 -1.144531 4.894531 -1.273438 5.09375 -1.453125 C 5.289062 -1.628906 5.441406 -1.851562 5.546875 -2.125 C 5.648438 -2.394531 5.703125 -2.71875 5.703125 -3.09375 C 5.703125 -3.75 5.5 -4.25 5.09375 -4.59375 C 4.6875 -4.945312 4.097656 -5.125 3.328125 -5.125 C 3.203125 -5.125 3.066406 -5.117188 2.921875 -5.109375 C 2.773438 -5.097656 2.628906 -5.082031 2.484375 -5.0625 C 2.347656 -5.039062 2.210938 -5.019531 2.078125 -5 C 1.953125 -4.976562 1.835938 -4.957031 1.734375 -4.9375 L 1.125 -5.34375 L 1.5 -10.078125 L 6.25 -10.078125 L 6.25 -8.9375 L 2.59375 -8.9375 L 2.3125 -6.046875 C 2.457031 -6.078125 2.648438 -6.109375 2.890625 -6.140625 C 3.140625 -6.171875 3.429688 -6.1875 3.765625 -6.1875 Z M 3.765625 -6.1875 "/></g></g></g><g fill="#000000" fill-opacity="1"><g transform="translate(27.823286, 79.124302)"><g><path d="M 4.90625 0 L 3.6875 0 L 3.6875 -6.296875 C 3.6875 -6.492188 3.6875 -6.703125 3.6875 -6.921875 C 3.695312 -7.148438 3.703125 -7.375 3.703125 -7.59375 C 3.710938 -7.820312 3.71875 -8.035156 3.71875 -8.234375 C 3.726562 -8.441406 3.738281 -8.625 3.75 -8.78125 C 3.664062 -8.695312 3.59375 -8.625 3.53125 -8.5625 C 3.476562 -8.507812 3.421875 -8.453125 3.359375 -8.390625 C 3.296875 -8.335938 3.226562 -8.28125 3.15625 -8.21875 C 3.09375 -8.15625 3.007812 -8.082031 2.90625 -8 L 1.890625 -7.171875 L 1.234375 -8.015625 L 3.875 -10.078125 L 4.90625 -10.078125 Z M 4.90625 0 "/></g></g></g><g fill="#000000" fill-opacity="1"><g transform="translate(35.602443, 79.124302)"><g><path d="M 7.125 -5.0625 C 7.125 -4.238281 7.0625 -3.503906 6.9375 -2.859375 C 6.820312 -2.222656 6.632812 -1.679688 6.375 -1.234375 C 6.113281 -0.785156 5.78125 -0.441406 5.375 -0.203125 C 4.96875 0.0234375 4.472656 0.140625 3.890625 0.140625 C 3.335938 0.140625 2.859375 0.0234375 2.453125 -0.203125 C 2.054688 -0.441406 1.722656 -0.785156 1.453125 -1.234375 C 1.191406 -1.679688 0.992188 -2.222656 0.859375 -2.859375 C 0.734375 -3.503906 0.671875 -4.238281 0.671875 -5.0625 C 0.671875 -5.875 0.726562 -6.597656 0.84375 -7.234375 C 0.96875 -7.878906 1.15625 -8.421875 1.40625 -8.859375 C 1.664062 -9.304688 2 -9.644531 2.40625 -9.875 C 2.8125 -10.113281 3.304688 -10.234375 3.890625 -10.234375 C 4.429688 -10.234375 4.90625 -10.117188 5.3125 -9.890625 C 5.71875 -9.660156 6.050781 -9.320312 6.3125 -8.875 C 6.582031 -8.4375 6.785156 -7.894531 6.921875 -7.25 C 7.054688 -6.601562 7.125 -5.875 7.125 -5.0625 Z M 1.953125 -5.0625 C 1.953125 -4.363281 1.984375 -3.753906 2.046875 -3.234375 C 2.117188 -2.722656 2.226562 -2.296875 2.375 -1.953125 C 2.53125 -1.617188 2.734375 -1.363281 2.984375 -1.1875 C 3.234375 -1.019531 3.535156 -0.9375 3.890625 -0.9375 C 4.242188 -0.9375 4.539062 -1.019531 4.78125 -1.1875 C 5.03125 -1.351562 5.234375 -1.609375 5.390625 -1.953125 C 5.554688 -2.296875 5.671875 -2.722656 5.734375 -3.234375 C 5.804688 -3.753906 5.84375 -4.363281 5.84375 -5.0625 C 5.84375 -5.75 5.804688 -6.347656 5.734375 -6.859375 C 5.671875 -7.378906 5.554688 -7.804688 5.390625 -8.140625 C 5.234375 -8.484375 5.03125 -8.738281 4.78125 -8.90625 C 4.539062 -9.082031 4.242188 -9.171875 3.890625 -9.171875 C 3.535156 -9.171875 3.234375 -9.082031 2.984375 -8.90625 C 2.734375 -8.738281 2.53125 -8.484375 2.375 -8.140625 C 2.226562 -7.804688 2.117188 -7.378906 2.046875 -6.859375 C 1.984375 -6.347656 1.953125 -5.75 1.953125 -5.0625 Z M 1.953125 -5.0625 "/></g></g></g><g fill="#000000" fill-opacity="1"><g transform="translate(58.047336, 79.124302)"><g><path d="M 4.90625 0 L 3.6875 0 L 3.6875 -6.296875 C 3.6875 -6.492188 3.6875 -6.703125 3.6875 -6.921875 C 3.695312 -7.148438 3.703125 -7.375 3.703125 -7.59375 C 3.710938 -7.820312 3.71875 -8.035156 3.71875 -8.234375 C 3.726562 -8.441406 3.738281 -8.625 3.75 -8.78125 C 3.664062 -8.695312 3.59375 -8.625 3.53125 -8.5625 C 3.476562 -8.507812 3.421875 -8.453125 3.359375 -8.390625 C 3.296875 -8.335938 3.226562 -8.28125 3.15625 -8.21875 C 3.09375 -8.15625 3.007812 -8.082031 2.90625 -8 L 1.890625 -7.171875 L 1.234375 -8.015625 L 3.875 -10.078125 L 4.90625 -10.078125 Z M 4.90625 0 "/></g></g></g><g fill="#000000" fill-opacity="1"><g transform="translate(65.826493, 79.124302)"><g><path d="M 3.765625 -6.1875 C 4.210938 -6.1875 4.632812 -6.125 5.03125 -6 C 5.425781 -5.875 5.769531 -5.6875 6.0625 -5.4375 C 6.351562 -5.1875 6.582031 -4.875 6.75 -4.5 C 6.914062 -4.132812 7 -3.710938 7 -3.234375 C 7 -2.710938 6.921875 -2.238281 6.765625 -1.8125 C 6.609375 -1.394531 6.375 -1.039062 6.0625 -0.75 C 5.75 -0.46875 5.363281 -0.25 4.90625 -0.09375 C 4.457031 0.0625 3.941406 0.140625 3.359375 0.140625 C 3.117188 0.140625 2.882812 0.125 2.65625 0.09375 C 2.4375 0.0703125 2.222656 0.0390625 2.015625 0 C 1.804688 -0.0390625 1.601562 -0.09375 1.40625 -0.15625 C 1.21875 -0.226562 1.050781 -0.3125 0.90625 -0.40625 L 0.90625 -1.59375 C 1.050781 -1.488281 1.226562 -1.394531 1.4375 -1.3125 C 1.644531 -1.226562 1.859375 -1.15625 2.078125 -1.09375 C 2.304688 -1.039062 2.535156 -1 2.765625 -0.96875 C 2.992188 -0.945312 3.203125 -0.9375 3.390625 -0.9375 C 3.753906 -0.9375 4.078125 -0.976562 4.359375 -1.0625 C 4.648438 -1.144531 4.894531 -1.273438 5.09375 -1.453125 C 5.289062 -1.628906 5.441406 -1.851562 5.546875 -2.125 C 5.648438 -2.394531 5.703125 -2.71875 5.703125 -3.09375 C 5.703125 -3.75 5.5 -4.25 5.09375 -4.59375 C 4.6875 -4.945312 4.097656 -5.125 3.328125 -5.125 C 3.203125 -5.125 3.066406 -5.117188 2.921875 -5.109375 C 2.773438 -5.097656 2.628906 -5.082031 2.484375 -5.0625 C 2.347656 -5.039062 2.210938 -5.019531 2.078125 -5 C 1.953125 -4.976562 1.835938 -4.957031 1.734375 -4.9375 L 1.125 -5.34375 L 1.5 -10.078125 L 6.25 -10.078125 L 6.25 -8.9375 L 2.59375 -8.9375 L 2.3125 -6.046875 C 2.457031 -6.078125 2.648438 -6.109375 2.890625 -6.140625 C 3.140625 -6.171875 3.429688 -6.1875 3.765625 -6.1875 Z M 3.765625 -6.1875 "/></g></g></g><g fill="#000000" fill-opacity="1"><g transform="translate(88.271382, 79.124302)"><g><path d="M 6.953125 0 L 0.65625 0 L 0.65625 -1.078125 L 3.078125 -3.703125 C 3.421875 -4.078125 3.726562 -4.414062 4 -4.71875 C 4.269531 -5.03125 4.5 -5.332031 4.6875 -5.625 C 4.882812 -5.914062 5.03125 -6.207031 5.125 -6.5 C 5.226562 -6.800781 5.28125 -7.128906 5.28125 -7.484375 C 5.28125 -7.753906 5.238281 -7.992188 5.15625 -8.203125 C 5.082031 -8.410156 4.972656 -8.585938 4.828125 -8.734375 C 4.679688 -8.878906 4.507812 -8.988281 4.3125 -9.0625 C 4.113281 -9.132812 3.894531 -9.171875 3.65625 -9.171875 C 3.21875 -9.171875 2.820312 -9.082031 2.46875 -8.90625 C 2.113281 -8.726562 1.78125 -8.5 1.46875 -8.21875 L 0.765625 -9.046875 C 0.953125 -9.210938 1.148438 -9.363281 1.359375 -9.5 C 1.566406 -9.644531 1.789062 -9.769531 2.03125 -9.875 C 2.28125 -9.988281 2.539062 -10.078125 2.8125 -10.140625 C 3.082031 -10.203125 3.367188 -10.234375 3.671875 -10.234375 C 4.109375 -10.234375 4.503906 -10.171875 4.859375 -10.046875 C 5.222656 -9.921875 5.523438 -9.738281 5.765625 -9.5 C 6.015625 -9.269531 6.207031 -8.988281 6.34375 -8.65625 C 6.476562 -8.320312 6.546875 -7.945312 6.546875 -7.53125 C 6.546875 -7.132812 6.484375 -6.757812 6.359375 -6.40625 C 6.242188 -6.0625 6.078125 -5.71875 5.859375 -5.375 C 5.648438 -5.03125 5.394531 -4.6875 5.09375 -4.34375 C 4.800781 -4 4.484375 -3.640625 4.140625 -3.265625 L 2.203125 -1.203125 L 2.203125 -1.140625 L 6.953125 -1.140625 Z M 6.953125 0 "/></g></g></g><g fill="#000000" fill-opacity="1"><g transform="translate(96.050539, 79.124302)"><g><path d="M 7.125 -5.0625 C 7.125 -4.238281 7.0625 -3.503906 6.9375 -2.859375 C 6.820312 -2.222656 6.632812 -1.679688 6.375 -1.234375 C 6.113281 -0.785156 5.78125 -0.441406 5.375 -0.203125 C 4.96875 0.0234375 4.472656 0.140625 3.890625 0.140625 C 3.335938 0.140625 2.859375 0.0234375 2.453125 -0.203125 C 2.054688 -0.441406 1.722656 -0.785156 1.453125 -1.234375 C 1.191406 -1.679688 0.992188 -2.222656 0.859375 -2.859375 C 0.734375 -3.503906 0.671875 -4.238281 0.671875 -5.0625 C 0.671875 -5.875 0.726562 -6.597656 0.84375 -7.234375 C 0.96875 -7.878906 1.15625 -8.421875 1.40625 -8.859375 C 1.664062 -9.304688 2 -9.644531 2.40625 -9.875 C 2.8125 -10.113281 3.304688 -10.234375 3.890625 -10.234375 C 4.429688 -10.234375 4.90625 -10.117188 5.3125 -9.890625 C 5.71875 -9.660156 6.050781 -9.320312 6.3125 -8.875 C 6.582031 -8.4375 6.785156 -7.894531 6.921875 -7.25 C 7.054688 -6.601562 7.125 -5.875 7.125 -5.0625 Z M 1.953125 -5.0625 C 1.953125 -4.363281 1.984375 -3.753906 2.046875 -3.234375 C 2.117188 -2.722656 2.226562 -2.296875 2.375 -1.953125 C 2.53125 -1.617188 2.734375 -1.363281 2.984375 -1.1875 C 3.234375 -1.019531 3.535156 -0.9375 3.890625 -0.9375 C 4.242188 -0.9375 4.539062 -1.019531 4.78125 -1.1875 C 5.03125 -1.351562 5.234375 -1.609375 5.390625 -1.953125 C 5.554688 -2.296875 5.671875 -2.722656 5.734375 -3.234375 C 5.804688 -3.753906 5.84375 -4.363281 5.84375 -5.0625 C 5.84375 -5.75 5.804688 -6.347656 5.734375 -6.859375 C 5.671875 -7.378906 5.554688 -7.804688 5.390625 -8.140625 C 5.234375 -8.484375 5.03125 -8.738281 4.78125 -8.90625 C 4.539062 -9.082031 4.242188 -9.171875 3.890625 -9.171875 C 3.535156 -9.171875 3.234375 -9.082031 2.984375 -8.90625 C 2.734375 -8.738281 2.53125 -8.484375 2.375 -8.140625 C 2.226562 -7.804688 2.117188 -7.378906 2.046875 -6.859375 C 1.984375 -6.347656 1.953125 -5.75 1.953125 -5.0625 Z M 1.953125 -5.0625 "/></g></g></g><g fill="#000000" fill-opacity="1"><g transform="translate(118.495433, 79.124302)"><g><path d="M 6.953125 0 L 0.65625 0 L 0.65625 -1.078125 L 3.078125 -3.703125 C 3.421875 -4.078125 3.726562 -4.414062 4 -4.71875 C 4.269531 -5.03125 4.5 -5.332031 4.6875 -5.625 C 4.882812 -5.914062 5.03125 -6.207031 5.125 -6.5 C 5.226562 -6.800781 5.28125 -7.128906 5.28125 -7.484375 C 5.28125 -7.753906 5.238281 -7.992188 5.15625 -8.203125 C 5.082031 -8.410156 4.972656 -8.585938 4.828125 -8.734375 C 4.679688 -8.878906 4.507812 -8.988281 4.3125 -9.0625 C 4.113281 -9.132812 3.894531 -9.171875 3.65625 -9.171875 C 3.21875 -9.171875 2.820312 -9.082031 2.46875 -8.90625 C 2.113281 -8.726562 1.78125 -8.5 1.46875 -8.21875 L 0.765625 -9.046875 C 0.953125 -9.210938 1.148438 -9.363281 1.359375 -9.5 C 1.566406 -9.644531 1.789062 -9.769531 2.03125 -9.875 C 2.28125 -9.988281 2.539062 -10.078125 2.8125 -10.140625 C 3.082031 -10.203125 3.367188 -10.234375 3.671875 -10.234375 C 4.109375 -10.234375 4.503906 -10.171875 4.859375 -10.046875 C 5.222656 -9.921875 5.523438 -9.738281 5.765625 -9.5 C 6.015625 -9.269531 6.207031 -8.988281 6.34375 -8.65625 C 6.476562 -8.320312 6.546875 -7.945312 6.546875 -7.53125 C 6.546875 -7.132812 6.484375 -6.757812 6.359375 -6.40625 C 6.242188 -6.0625 6.078125 -5.71875 5.859375 -5.375 C 5.648438 -5.03125 5.394531 -4.6875 5.09375 -4.34375 C 4.800781 -4 4.484375 -3.640625 4.140625 -3.265625 L 2.203125 -1.203125 L 2.203125 -1.140625 L 6.953125 -1.140625 Z M 6.953125 0 "/></g></g></g><g fill="#000000" fill-opacity="1"><g transform="translate(126.27459, 79.124302)"><g><path d="M 3.765625 -6.1875 C 4.210938 -6.1875 4.632812 -6.125 5.03125 -6 C 5.425781 -5.875 5.769531 -5.6875 6.0625 -5.4375 C 6.351562 -5.1875 6.582031 -4.875 6.75 -4.5 C 6.914062 -4.132812 7 -3.710938 7 -3.234375 C 7 -2.710938 6.921875 -2.238281 6.765625 -1.8125 C 6.609375 -1.394531 6.375 -1.039062 6.0625 -0.75 C 5.75 -0.46875 5.363281 -0.25 4.90625 -0.09375 C 4.457031 0.0625 3.941406 0.140625 3.359375 0.140625 C 3.117188 0.140625 2.882812 0.125 2.65625 0.09375 C 2.4375 0.0703125 2.222656 0.0390625 2.015625 0 C 1.804688 -0.0390625 1.601562 -0.09375 1.40625 -0.15625 C 1.21875 -0.226562 1.050781 -0.3125 0.90625 -0.40625 L 0.90625 -1.59375 C 1.050781 -1.488281 1.226562 -1.394531 1.4375 -1.3125 C 1.644531 -1.226562 1.859375 -1.15625 2.078125 -1.09375 C 2.304688 -1.039062 2.535156 -1 2.765625 -0.96875 C 2.992188 -0.945312 3.203125 -0.9375 3.390625 -0.9375 C 3.753906 -0.9375 4.078125 -0.976562 4.359375 -1.0625 C 4.648438 -1.144531 4.894531 -1.273438 5.09375 -1.453125 C 5.289062 -1.628906 5.441406 -1.851562 5.546875 -2.125 C 5.648438 -2.394531 5.703125 -2.71875 5.703125 -3.09375 C 5.703125 -3.75 5.5 -4.25 5.09375 -4.59375 C 4.6875 -4.945312 4.097656 -5.125 3.328125 -5.125 C 3.203125 -5.125 3.066406 -5.117188 2.921875 -5.109375 C 2.773438 -5.097656 2.628906 -5.082031 2.484375 -5.0625 C 2.347656 -5.039062 2.210938 -5.019531 2.078125 -5 C 1.953125 -4.976562 1.835938 -4.957031 1.734375 -4.9375 L 1.125 -5.34375 L 1.5 -10.078125 L 6.25 -10.078125 L 6.25 -8.9375 L 2.59375 -8.9375 L 2.3125 -6.046875 C 2.457031 -6.078125 2.648438 -6.109375 2.890625 -6.140625 C 3.140625 -6.171875 3.429688 -6.1875 3.765625 -6.1875 Z M 3.765625 -6.1875 "/></g></g></g><g fill="#000000" fill-opacity="1"><g transform="translate(148.719468, 79.124302)"><g><path d="M 6.953125 0 L 0.65625 0 L 0.65625 -1.078125 L 3.078125 -3.703125 C 3.421875 -4.078125 3.726562 -4.414062 4 -4.71875 C 4.269531 -5.03125 4.5 -5.332031 4.6875 -5.625 C 4.882812 -5.914062 5.03125 -6.207031 5.125 -6.5 C 5.226562 -6.800781 5.28125 -7.128906 5.28125 -7.484375 C 5.28125 -7.753906 5.238281 -7.992188 5.15625 -8.203125 C 5.082031 -8.410156 4.972656 -8.585938 4.828125 -8.734375 C 4.679688 -8.878906 4.507812 -8.988281 4.3125 -9.0625 C 4.113281 -9.132812 3.894531 -9.171875 3.65625 -9.171875 C 3.21875 -9.171875 2.820312 -9.082031 2.46875 -8.90625 C 2.113281 -8.726562 1.78125 -8.5 1.46875 -8.21875 L 0.765625 -9.046875 C 0.953125 -9.210938 1.148438 -9.363281 1.359375 -9.5 C 1.566406 -9.644531 1.789062 -9.769531 2.03125 -9.875 C 2.28125 -9.988281 2.539062 -10.078125 2.8125 -10.140625 C 3.082031 -10.203125 3.367188 -10.234375 3.671875 -10.234375 C 4.109375 -10.234375 4.503906 -10.171875 4.859375 -10.046875 C 5.222656 -9.921875 5.523438 -9.738281 5.765625 -9.5 C 6.015625 -9.269531 6.207031 -8.988281 6.34375 -8.65625 C 6.476562 -8.320312 6.546875 -7.945312 6.546875 -7.53125 C 6.546875 -7.132812 6.484375 -6.757812 6.359375 -6.40625 C 6.242188 -6.0625 6.078125 -5.71875 5.859375 -5.375 C 5.648438 -5.03125 5.394531 -4.6875 5.09375 -4.34375 C 4.800781 -4 4.484375 -3.640625 4.140625 -3.265625 L 2.203125 -1.203125 L 2.203125 -1.140625 L 6.953125 -1.140625 Z M 6.953125 0 "/></g></g></g><g fill="#000000" fill-opacity="1"><g transform="translate(156.498625, 79.124302)"><g><path d="M 3.765625 -6.1875 C 4.210938 -6.1875 4.632812 -6.125 5.03125 -6 C 5.425781 -5.875 5.769531 -5.6875 6.0625 -5.4375 C 6.351562 -5.1875 6.582031 -4.875 6.75 -4.5 C 6.914062 -4.132812 7 -3.710938 7 -3.234375 C 7 -2.710938 6.921875 -2.238281 6.765625 -1.8125 C 6.609375 -1.394531 6.375 -1.039062 6.0625 -0.75 C 5.75 -0.46875 5.363281 -0.25 4.90625 -0.09375 C 4.457031 0.0625 3.941406 0.140625 3.359375 0.140625 C 3.117188 0.140625 2.882812 0.125 2.65625 0.09375 C 2.4375 0.0703125 2.222656 0.0390625 2.015625 0 C 1.804688 -0.0390625 1.601562 -0.09375 1.40625 -0.15625 C 1.21875 -0.226562 1.050781 -0.3125 0.90625 -0.40625 L 0.90625 -1.59375 C 1.050781 -1.488281 1.226562 -1.394531 1.4375 -1.3125 C 1.644531 -1.226562 1.859375 -1.15625 2.078125 -1.09375 C 2.304688 -1.039062 2.535156 -1 2.765625 -0.96875 C 2.992188 -0.945312 3.203125 -0.9375 3.390625 -0.9375 C 3.753906 -0.9375 4.078125 -0.976562 4.359375 -1.0625 C 4.648438 -1.144531 4.894531 -1.273438 5.09375 -1.453125 C 5.289062 -1.628906 5.441406 -1.851562 5.546875 -2.125 C 5.648438 -2.394531 5.703125 -2.71875 5.703125 -3.09375 C 5.703125 -3.75 5.5 -4.25 5.09375 -4.59375 C 4.6875 -4.945312 4.097656 -5.125 3.328125 -5.125 C 3.203125 -5.125 3.066406 -5.117188 2.921875 -5.109375 C 2.773438 -5.097656 2.628906 -5.082031 2.484375 -5.0625 C 2.347656 -5.039062 2.210938 -5.019531 2.078125 -5 C 1.953125 -4.976562 1.835938 -4.957031 1.734375 -4.9375 L 1.125 -5.34375 L 1.5 -10.078125 L 6.25 -10.078125 L 6.25 -8.9375 L 2.59375 -8.9375 L 2.3125 -6.046875 C 2.457031 -6.078125 2.648438 -6.109375 2.890625 -6.140625 C 3.140625 -6.171875 3.429688 -6.1875 3.765625 -6.1875 Z M 3.765625 -6.1875 "/></g></g></g><g fill="#000000" fill-opacity="1"><g transform="translate(178.943526, 79.124302)"><g><path d="M 4.90625 0 L 3.6875 0 L 3.6875 -6.296875 C 3.6875 -6.492188 3.6875 -6.703125 3.6875 -6.921875 C 3.695312 -7.148438 3.703125 -7.375 3.703125 -7.59375 C 3.710938 -7.820312 3.71875 -8.035156 3.71875 -8.234375 C 3.726562 -8.441406 3.738281 -8.625 3.75 -8.78125 C 3.664062 -8.695312 3.59375 -8.625 3.53125 -8.5625 C 3.476562 -8.507812 3.421875 -8.453125 3.359375 -8.390625 C 3.296875 -8.335938 3.226562 -8.28125 3.15625 -8.21875 C 3.09375 -8.15625 3.007812 -8.082031 2.90625 -8 L 1.890625 -7.171875 L 1.234375 -8.015625 L 3.875 -10.078125 L 4.90625 -10.078125 Z M 4.90625 0 "/></g></g></g><g fill="#000000" fill-opacity="1"><g transform="translate(186.722683, 79.124302)"><g><path d="M 7.5 -2.265625 L 6.03125 -2.265625 L 6.03125 0 L 4.8125 0 L 4.8125 -2.265625 L 0.15625 -2.265625 L 0.15625 -3.359375 L 4.734375 -10.140625 L 6.03125 -10.140625 L 6.03125 -3.40625 L 7.5 -3.40625 Z M 4.8125 -3.40625 L 4.8125 -5.859375 C 4.8125 -6.117188 4.8125 -6.390625 4.8125 -6.671875 C 4.820312 -6.953125 4.832031 -7.226562 4.84375 -7.5 C 4.851562 -7.769531 4.863281 -8.019531 4.875 -8.25 C 4.882812 -8.488281 4.894531 -8.6875 4.90625 -8.84375 L 4.84375 -8.84375 C 4.8125 -8.75 4.769531 -8.644531 4.71875 -8.53125 C 4.675781 -8.414062 4.625 -8.300781 4.5625 -8.1875 C 4.5 -8.082031 4.4375 -7.972656 4.375 -7.859375 C 4.320312 -7.753906 4.269531 -7.664062 4.21875 -7.59375 L 1.390625 -3.40625 Z M 4.8125 -3.40625 "/></g></g></g><g fill="#000000" fill-opacity="1"><g transform="translate(209.167568, 79.124302)"><g><path d="M 4.90625 0 L 3.6875 0 L 3.6875 -6.296875 C 3.6875 -6.492188 3.6875 -6.703125 3.6875 -6.921875 C 3.695312 -7.148438 3.703125 -7.375 3.703125 -7.59375 C 3.710938 -7.820312 3.71875 -8.035156 3.71875 -8.234375 C 3.726562 -8.441406 3.738281 -8.625 3.75 -8.78125 C 3.664062 -8.695312 3.59375 -8.625 3.53125 -8.5625 C 3.476562 -8.507812 3.421875 -8.453125 3.359375 -8.390625 C 3.296875 -8.335938 3.226562 -8.28125 3.15625 -8.21875 C 3.09375 -8.15625 3.007812 -8.082031 2.90625 -8 L 1.890625 -7.171875 L 1.234375 -8.015625 L 3.875 -10.078125 L 4.90625 -10.078125 Z M 4.90625 0 "/></g></g></g><g fill="#000000" fill-opacity="1"><g transform="translate(216.946725, 79.124302)"><g><path d="M 7.09375 -5.78125 C 7.09375 -5.300781 7.066406 -4.816406 7.015625 -4.328125 C 6.960938 -3.847656 6.875 -3.390625 6.75 -2.953125 C 6.632812 -2.515625 6.46875 -2.109375 6.25 -1.734375 C 6.039062 -1.359375 5.773438 -1.03125 5.453125 -0.75 C 5.128906 -0.476562 4.738281 -0.257812 4.28125 -0.09375 C 3.820312 0.0625 3.289062 0.140625 2.6875 0.140625 C 2.59375 0.140625 2.492188 0.132812 2.390625 0.125 C 2.285156 0.125 2.179688 0.117188 2.078125 0.109375 C 1.972656 0.0976562 1.867188 0.0820312 1.765625 0.0625 C 1.660156 0.0507812 1.570312 0.0351562 1.5 0.015625 L 1.5 -1.0625 C 1.65625 -1 1.832031 -0.953125 2.03125 -0.921875 C 2.238281 -0.898438 2.441406 -0.890625 2.640625 -0.890625 C 3.265625 -0.890625 3.773438 -0.992188 4.171875 -1.203125 C 4.566406 -1.421875 4.878906 -1.71875 5.109375 -2.09375 C 5.347656 -2.46875 5.515625 -2.898438 5.609375 -3.390625 C 5.710938 -3.878906 5.78125 -4.394531 5.8125 -4.9375 L 5.71875 -4.9375 C 5.625 -4.78125 5.507812 -4.628906 5.375 -4.484375 C 5.25 -4.335938 5.097656 -4.210938 4.921875 -4.109375 C 4.753906 -4.003906 4.554688 -3.921875 4.328125 -3.859375 C 4.109375 -3.796875 3.863281 -3.765625 3.59375 -3.765625 C 3.15625 -3.765625 2.757812 -3.832031 2.40625 -3.96875 C 2.0625 -4.101562 1.765625 -4.300781 1.515625 -4.5625 C 1.265625 -4.832031 1.070312 -5.15625 0.9375 -5.53125 C 0.800781 -5.914062 0.734375 -6.347656 0.734375 -6.828125 C 0.734375 -7.359375 0.804688 -7.832031 0.953125 -8.25 C 1.097656 -8.675781 1.300781 -9.035156 1.5625 -9.328125 C 1.820312 -9.617188 2.140625 -9.84375 2.515625 -10 C 2.898438 -10.15625 3.328125 -10.234375 3.796875 -10.234375 C 4.265625 -10.234375 4.695312 -10.140625 5.09375 -9.953125 C 5.5 -9.773438 5.847656 -9.503906 6.140625 -9.140625 C 6.429688 -8.773438 6.660156 -8.3125 6.828125 -7.75 C 7.003906 -7.1875 7.09375 -6.53125 7.09375 -5.78125 Z M 3.8125 -9.171875 C 3.539062 -9.171875 3.289062 -9.125 3.0625 -9.03125 C 2.832031 -8.9375 2.632812 -8.789062 2.46875 -8.59375 C 2.300781 -8.40625 2.171875 -8.164062 2.078125 -7.875 C 1.992188 -7.582031 1.953125 -7.234375 1.953125 -6.828125 C 1.953125 -6.515625 1.988281 -6.226562 2.0625 -5.96875 C 2.132812 -5.71875 2.25 -5.5 2.40625 -5.3125 C 2.5625 -5.132812 2.75 -5 2.96875 -4.90625 C 3.195312 -4.8125 3.460938 -4.765625 3.765625 -4.765625 C 4.078125 -4.765625 4.359375 -4.816406 4.609375 -4.921875 C 4.867188 -5.023438 5.085938 -5.160156 5.265625 -5.328125 C 5.441406 -5.503906 5.578125 -5.703125 5.671875 -5.921875 C 5.773438 -6.148438 5.828125 -6.375 5.828125 -6.59375 C 5.828125 -6.90625 5.785156 -7.210938 5.703125 -7.515625 C 5.617188 -7.816406 5.492188 -8.085938 5.328125 -8.328125 C 5.160156 -8.578125 4.945312 -8.78125 4.6875 -8.9375 C 4.4375 -9.09375 4.144531 -9.171875 3.8125 -9.171875 Z M 3.8125 -9.171875 "/></g></g></g><g fill="#000000" fill-opacity="1"><g transform="translate(239.391611, 79.124302)"><g><path d="M 6.953125 0 L 0.65625 0 L 0.65625 -1.078125 L 3.078125 -3.703125 C 3.421875 -4.078125 3.726562 -4.414062 4 -4.71875 C 4.269531 -5.03125 4.5 -5.332031 4.6875 -5.625 C 4.882812 -5.914062 5.03125 -6.207031 5.125 -6.5 C 5.226562 -6.800781 5.28125 -7.128906 5.28125 -7.484375 C 5.28125 -7.753906 5.238281 -7.992188 5.15625 -8.203125 C 5.082031 -8.410156 4.972656 -8.585938 4.828125 -8.734375 C 4.679688 -8.878906 4.507812 -8.988281 4.3125 -9.0625 C 4.113281 -9.132812 3.894531 -9.171875 3.65625 -9.171875 C 3.21875 -9.171875 2.820312 -9.082031 2.46875 -8.90625 C 2.113281 -8.726562 1.78125 -8.5 1.46875 -8.21875 L 0.765625 -9.046875 C 0.953125 -9.210938 1.148438 -9.363281 1.359375 -9.5 C 1.566406 -9.644531 1.789062 -9.769531 2.03125 -9.875 C 2.28125 -9.988281 2.539062 -10.078125 2.8125 -10.140625 C 3.082031 -10.203125 3.367188 -10.234375 3.671875 -10.234375 C 4.109375 -10.234375 4.503906 -10.171875 4.859375 -10.046875 C 5.222656 -9.921875 5.523438 -9.738281 5.765625 -9.5 C 6.015625 -9.269531 6.207031 -8.988281 6.34375 -8.65625 C 6.476562 -8.320312 6.546875 -7.945312 6.546875 -7.53125 C 6.546875 -7.132812 6.484375 -6.757812 6.359375 -6.40625 C 6.242188 -6.0625 6.078125 -5.71875 5.859375 -5.375 C 5.648438 -5.03125 5.394531 -4.6875 5.09375 -4.34375 C 4.800781 -4 4.484375 -3.640625 4.140625 -3.265625 L 2.203125 -1.203125 L 2.203125 -1.140625 L 6.953125 -1.140625 Z M 6.953125 0 "/></g></g></g><g fill="#000000" fill-opacity="1"><g transform="translate(247.170769, 79.124302)"><g><path d="M 7.5 -2.265625 L 6.03125 -2.265625 L 6.03125 0 L 4.8125 0 L 4.8125 -2.265625 L 0.15625 -2.265625 L 0.15625 -3.359375 L 4.734375 -10.140625 L 6.03125 -10.140625 L 6.03125 -3.40625 L 7.5 -3.40625 Z M 4.8125 -3.40625 L 4.8125 -5.859375 C 4.8125 -6.117188 4.8125 -6.390625 4.8125 -6.671875 C 4.820312 -6.953125 4.832031 -7.226562 4.84375 -7.5 C 4.851562 -7.769531 4.863281 -8.019531 4.875 -8.25 C 4.882812 -8.488281 4.894531 -8.6875 4.90625 -8.84375 L 4.84375 -8.84375 C 4.8125 -8.75 4.769531 -8.644531 4.71875 -8.53125 C 4.675781 -8.414062 4.625 -8.300781 4.5625 -8.1875 C 4.5 -8.082031 4.4375 -7.972656 4.375 -7.859375 C 4.320312 -7.753906 4.269531 -7.664062 4.21875 -7.59375 L 1.390625 -3.40625 Z M 4.8125 -3.40625 "/></g></g></g><g fill="#000000" fill-opacity="1"><g transform="translate(269.615639, 79.124302)"><g><path d="M 6.953125 0 L 0.65625 0 L 0.65625 -1.078125 L 3.078125 -3.703125 C 3.421875 -4.078125 3.726562 -4.414062 4 -4.71875 C 4.269531 -5.03125 4.5 -5.332031 4.6875 -5.625 C 4.882812 -5.914062 5.03125 -6.207031 5.125 -6.5 C 5.226562 -6.800781 5.28125 -7.128906 5.28125 -7.484375 C 5.28125 -7.753906 5.238281 -7.992188 5.15625 -8.203125 C 5.082031 -8.410156 4.972656 -8.585938 4.828125 -8.734375 C 4.679688 -8.878906 4.507812 -8.988281 4.3125 -9.0625 C 4.113281 -9.132812 3.894531 -9.171875 3.65625 -9.171875 C 3.21875 -9.171875 2.820312 -9.082031 2.46875 -8.90625 C 2.113281 -8.726562 1.78125 -8.5 1.46875 -8.21875 L 0.765625 -9.046875 C 0.953125 -9.210938 1.148438 -9.363281 1.359375 -9.5 C 1.566406 -9.644531 1.789062 -9.769531 2.03125 -9.875 C 2.28125 -9.988281 2.539062 -10.078125 2.8125 -10.140625 C 3.082031 -10.203125 3.367188 -10.234375 3.671875 -10.234375 C 4.109375 -10.234375 4.503906 -10.171875 4.859375 -10.046875 C 5.222656 -9.921875 5.523438 -9.738281 5.765625 -9.5 C 6.015625 -9.269531 6.207031 -8.988281 6.34375 -8.65625 C 6.476562 -8.320312 6.546875 -7.945312 6.546875 -7.53125 C 6.546875 -7.132812 6.484375 -6.757812 6.359375 -6.40625 C 6.242188 -6.0625 6.078125 -5.71875 5.859375 -5.375 C 5.648438 -5.03125 5.394531 -4.6875 5.09375 -4.34375 C 4.800781 -4 4.484375 -3.640625 4.140625 -3.265625 L 2.203125 -1.203125 L 2.203125 -1.140625 L 6.953125 -1.140625 Z M 6.953125 0 "/></g></g></g><g fill="#000000" fill-opacity="1"><g transform="translate(277.394796, 79.124302)"><g><path d="M 7.09375 -5.78125 C 7.09375 -5.300781 7.066406 -4.816406 7.015625 -4.328125 C 6.960938 -3.847656 6.875 -3.390625 6.75 -2.953125 C 6.632812 -2.515625 6.46875 -2.109375 6.25 -1.734375 C 6.039062 -1.359375 5.773438 -1.03125 5.453125 -0.75 C 5.128906 -0.476562 4.738281 -0.257812 4.28125 -0.09375 C 3.820312 0.0625 3.289062 0.140625 2.6875 0.140625 C 2.59375 0.140625 2.492188 0.132812 2.390625 0.125 C 2.285156 0.125 2.179688 0.117188 2.078125 0.109375 C 1.972656 0.0976562 1.867188 0.0820312 1.765625 0.0625 C 1.660156 0.0507812 1.570312 0.0351562 1.5 0.015625 L 1.5 -1.0625 C 1.65625 -1 1.832031 -0.953125 2.03125 -0.921875 C 2.238281 -0.898438 2.441406 -0.890625 2.640625 -0.890625 C 3.265625 -0.890625 3.773438 -0.992188 4.171875 -1.203125 C 4.566406 -1.421875 4.878906 -1.71875 5.109375 -2.09375 C 5.347656 -2.46875 5.515625 -2.898438 5.609375 -3.390625 C 5.710938 -3.878906 5.78125 -4.394531 5.8125 -4.9375 L 5.71875 -4.9375 C 5.625 -4.78125 5.507812 -4.628906 5.375 -4.484375 C 5.25 -4.335938 5.097656 -4.210938 4.921875 -4.109375 C 4.753906 -4.003906 4.554688 -3.921875 4.328125 -3.859375 C 4.109375 -3.796875 3.863281 -3.765625 3.59375 -3.765625 C 3.15625 -3.765625 2.757812 -3.832031 2.40625 -3.96875 C 2.0625 -4.101562 1.765625 -4.300781 1.515625 -4.5625 C 1.265625 -4.832031 1.070312 -5.15625 0.9375 -5.53125 C 0.800781 -5.914062 0.734375 -6.347656 0.734375 -6.828125 C 0.734375 -7.359375 0.804688 -7.832031 0.953125 -8.25 C 1.097656 -8.675781 1.300781 -9.035156 1.5625 -9.328125 C 1.820312 -9.617188 2.140625 -9.84375 2.515625 -10 C 2.898438 -10.15625 3.328125 -10.234375 3.796875 -10.234375 C 4.265625 -10.234375 4.695312 -10.140625 5.09375 -9.953125 C 5.5 -9.773438 5.847656 -9.503906 6.140625 -9.140625 C 6.429688 -8.773438 6.660156 -8.3125 6.828125 -7.75 C 7.003906 -7.1875 7.09375 -6.53125 7.09375 -5.78125 Z M 3.8125 -9.171875 C 3.539062 -9.171875 3.289062 -9.125 3.0625 -9.03125 C 2.832031 -8.9375 2.632812 -8.789062 2.46875 -8.59375 C 2.300781 -8.40625 2.171875 -8.164062 2.078125 -7.875 C 1.992188 -7.582031 1.953125 -7.234375 1.953125 -6.828125 C 1.953125 -6.515625 1.988281 -6.226562 2.0625 -5.96875 C 2.132812 -5.71875 2.25 -5.5 2.40625 -5.3125 C 2.5625 -5.132812 2.75 -5 2.96875 -4.90625 C 3.195312 -4.8125 3.460938 -4.765625 3.765625 -4.765625 C 4.078125 -4.765625 4.359375 -4.816406 4.609375 -4.921875 C 4.867188 -5.023438 5.085938 -5.160156 5.265625 -5.328125 C 5.441406 -5.503906 5.578125 -5.703125 5.671875 -5.921875 C 5.773438 -6.148438 5.828125 -6.375 5.828125 -6.59375 C 5.828125 -6.90625 5.785156 -7.210938 5.703125 -7.515625 C 5.617188 -7.816406 5.492188 -8.085938 5.328125 -8.328125 C 5.160156 -8.578125 4.945312 -8.78125 4.6875 -8.9375 C 4.4375 -9.09375 4.144531 -9.171875 3.8125 -9.171875 Z M 3.8125 -9.171875 "/></g></g></g><g clip-path="url(#53448c0c31)"><path fill="#000000" d="M 20.210938 22.289062 L 20.210938 92.101562 M 50.433594 22.289062 L 50.433594 92.101562 M 80.660156 22.289062 L 80.660156 92.101562 M 110.882812 22.289062 L 110.882812 92.101562 M 141.105469 22.289062 L 141.105469 92.101562 M 171.332031 22.289062 L 171.332031 92.101562 M 201.554688 22.289062 L 201.554688 92.101562 M 231.777344 22.289062 L 231.777344 92.101562 M 262.003906 22.289062 L 262.003906 92.101562 M 292.226562 22.289062 L 292.226562 92.101562 M 19.644531 21.722656 L 292.792969 21.722656 M 19.644531 57.195312 L 292.792969 57.195312 M 19.644531 92.667969 L 292.792969 92.667969 " fill-opacity="1" fill-rule="nonzero"/></g><g clip-path="url(#626865a4ed)"><path stroke-linecap="butt" transform="matrix(0.746681, 0, 0, 0.746681, 19.642876, 21.154345)" fill="none" stroke-linejoin="miter" d="M 0.760782 1.519681 L 0.760782 95.016724 M 41.236757 1.519681 L 41.236757 95.016724 M 81.717964 1.519681 L 81.717964 95.016724 M 122.193939 1.519681 L 122.193939 95.016724 M 162.669914 1.519681 L 162.669914 95.016724 M 203.15112 1.519681 L 203.15112 95.016724 M 243.627096 1.519681 L 243.627096 95.016724 M 284.103071 1.519681 L 284.103071 95.016724 M 324.584277 1.519681 L 324.584277 95.016724 M 365.060252 1.519681 L 365.060252 95.016724 M 0.00221718 0.761116 L 365.818817 0.761116 M 0.00221718 48.268202 L 365.818817 48.268202 M 0.00221718 95.775289 L 365.818817 95.775289 " stroke="#000000" stroke-width="1.520294" stroke-opacity="1" stroke-miterlimit="4"/></g><g fill="#000000" fill-opacity="1"><g transform="translate(3.759397, 78.085833)"><g><path d="M 5.34375 -2.15625 C 5.34375 -1.800781 5.28125 -1.484375 5.15625 -1.203125 C 5.03125 -0.921875 4.847656 -0.679688 4.609375 -0.484375 C 4.378906 -0.285156 4.09375 -0.132812 3.75 -0.03125 C 3.414062 0.0625 3.035156 0.109375 2.609375 0.109375 C 2.203125 0.109375 1.820312 0.078125 1.46875 0.015625 C 1.113281 -0.046875 0.816406 -0.140625 0.578125 -0.265625 L 0.578125 -1.25 C 0.703125 -1.1875 0.84375 -1.128906 1 -1.078125 C 1.15625 -1.023438 1.320312 -0.972656 1.5 -0.921875 C 1.675781 -0.878906 1.859375 -0.84375 2.046875 -0.8125 C 2.234375 -0.789062 2.421875 -0.78125 2.609375 -0.78125 C 3.191406 -0.78125 3.625 -0.890625 3.90625 -1.109375 C 4.1875 -1.328125 4.328125 -1.644531 4.328125 -2.0625 C 4.328125 -2.257812 4.300781 -2.429688 4.25 -2.578125 C 4.195312 -2.722656 4.101562 -2.859375 3.96875 -2.984375 C 3.832031 -3.109375 3.648438 -3.226562 3.421875 -3.34375 C 3.203125 -3.457031 2.925781 -3.582031 2.59375 -3.71875 C 2.257812 -3.84375 1.972656 -3.984375 1.734375 -4.140625 C 1.492188 -4.296875 1.296875 -4.46875 1.140625 -4.65625 C 0.984375 -4.84375 0.863281 -5.054688 0.78125 -5.296875 C 0.707031 -5.546875 0.671875 -5.828125 0.671875 -6.140625 C 0.671875 -6.460938 0.726562 -6.75 0.84375 -7 C 0.96875 -7.25 1.132812 -7.460938 1.34375 -7.640625 C 1.5625 -7.816406 1.816406 -7.953125 2.109375 -8.046875 C 2.410156 -8.140625 2.738281 -8.1875 3.09375 -8.1875 C 3.53125 -8.1875 3.921875 -8.144531 4.265625 -8.0625 C 4.617188 -7.976562 4.929688 -7.867188 5.203125 -7.734375 L 4.84375 -6.875 C 4.601562 -6.976562 4.328125 -7.070312 4.015625 -7.15625 C 3.710938 -7.238281 3.398438 -7.28125 3.078125 -7.28125 C 2.628906 -7.28125 2.28125 -7.175781 2.03125 -6.96875 C 1.789062 -6.757812 1.671875 -6.476562 1.671875 -6.125 C 1.671875 -5.914062 1.695312 -5.734375 1.75 -5.578125 C 1.8125 -5.421875 1.90625 -5.28125 2.03125 -5.15625 C 2.15625 -5.039062 2.320312 -4.925781 2.53125 -4.8125 C 2.75 -4.707031 3.015625 -4.59375 3.328125 -4.46875 C 3.660156 -4.34375 3.953125 -4.207031 4.203125 -4.0625 C 4.453125 -3.925781 4.660156 -3.769531 4.828125 -3.59375 C 4.992188 -3.414062 5.117188 -3.207031 5.203125 -2.96875 C 5.296875 -2.738281 5.34375 -2.46875 5.34375 -2.15625 Z M 5.34375 -2.15625 "/></g></g></g><g fill="#000000" fill-opacity="1"><g transform="translate(31.789418, 16.738396)"><g><path d="M 4.953125 0 L 3.734375 0 L 3.734375 -6.359375 C 3.734375 -6.566406 3.734375 -6.78125 3.734375 -7 C 3.734375 -7.226562 3.738281 -7.457031 3.75 -7.6875 C 3.757812 -7.914062 3.765625 -8.128906 3.765625 -8.328125 C 3.773438 -8.535156 3.78125 -8.722656 3.78125 -8.890625 C 3.707031 -8.804688 3.640625 -8.734375 3.578125 -8.671875 C 3.515625 -8.609375 3.453125 -8.546875 3.390625 -8.484375 C 3.328125 -8.429688 3.257812 -8.375 3.1875 -8.3125 C 3.125 -8.25 3.039062 -8.175781 2.9375 -8.09375 L 1.90625 -7.25 L 1.234375 -8.109375 L 3.90625 -10.1875 L 4.953125 -10.1875 Z M 4.953125 0 "/></g></g></g><g fill="#000000" fill-opacity="1"><g transform="translate(39.65836, 16.738396)"><g/></g></g><g fill="#000000" fill-opacity="1"><g transform="translate(43.366963, 16.738396)"><g/></g></g><g fill="#000000" fill-opacity="1"><g transform="translate(47.075565, 16.738396)"><g/></g></g><g fill="#000000" fill-opacity="1"><g transform="translate(50.784168, 16.738396)"><g/></g></g><g fill="#000000" fill-opacity="1"><g transform="translate(54.49277, 16.738396)"><g/></g></g><g fill="#000000" fill-opacity="1"><g transform="translate(58.201373, 16.738396)"><g/></g></g><g fill="#000000" fill-opacity="1"><g transform="translate(61.91057, 16.738396)"><g><path d="M 7.03125 0 L 0.671875 0 L 0.671875 -1.09375 L 3.109375 -3.75 C 3.460938 -4.125 3.773438 -4.46875 4.046875 -4.78125 C 4.316406 -5.09375 4.546875 -5.394531 4.734375 -5.6875 C 4.929688 -5.988281 5.082031 -6.285156 5.1875 -6.578125 C 5.289062 -6.878906 5.34375 -7.207031 5.34375 -7.5625 C 5.34375 -7.84375 5.300781 -8.085938 5.21875 -8.296875 C 5.144531 -8.503906 5.035156 -8.679688 4.890625 -8.828125 C 4.742188 -8.972656 4.566406 -9.082031 4.359375 -9.15625 C 4.160156 -9.226562 3.941406 -9.265625 3.703125 -9.265625 C 3.253906 -9.265625 2.851562 -9.175781 2.5 -9 C 2.144531 -8.820312 1.804688 -8.59375 1.484375 -8.3125 L 0.78125 -9.140625 C 0.957031 -9.304688 1.148438 -9.460938 1.359375 -9.609375 C 1.578125 -9.753906 1.8125 -9.878906 2.0625 -9.984375 C 2.3125 -10.097656 2.570312 -10.1875 2.84375 -10.25 C 3.113281 -10.3125 3.398438 -10.34375 3.703125 -10.34375 C 4.148438 -10.34375 4.550781 -10.28125 4.90625 -10.15625 C 5.269531 -10.03125 5.578125 -9.847656 5.828125 -9.609375 C 6.085938 -9.378906 6.285156 -9.09375 6.421875 -8.75 C 6.554688 -8.414062 6.625 -8.035156 6.625 -7.609375 C 6.625 -7.210938 6.5625 -6.835938 6.4375 -6.484375 C 6.3125 -6.128906 6.140625 -5.773438 5.921875 -5.421875 C 5.710938 -5.078125 5.457031 -4.726562 5.15625 -4.375 C 4.851562 -4.03125 4.53125 -3.671875 4.1875 -3.296875 L 2.21875 -1.21875 L 2.21875 -1.15625 L 7.03125 -1.15625 Z M 7.03125 0 "/></g></g></g><g fill="#000000" fill-opacity="1"><g transform="translate(69.779512, 16.738396)"><g/></g></g><g fill="#000000" fill-opacity="1"><g transform="translate(73.488114, 16.738396)"><g/></g></g><g fill="#000000" fill-opacity="1"><g transform="translate(77.196717, 16.738396)"><g/></g></g><g fill="#000000" fill-opacity="1"><g transform="translate(80.905319, 16.738396)"><g/></g></g><g fill="#000000" fill-opacity="1"><g transform="translate(84.613922, 16.738396)"><g/></g></g><g fill="#000000" fill-opacity="1"><g transform="translate(88.322524, 16.738396)"><g/></g></g><g fill="#000000" fill-opacity="1"><g transform="translate(92.031722, 16.738396)"><g><path d="M 6.703125 -7.8125 C 6.703125 -7.46875 6.644531 -7.15625 6.53125 -6.875 C 6.425781 -6.601562 6.273438 -6.363281 6.078125 -6.15625 C 5.890625 -5.945312 5.660156 -5.773438 5.390625 -5.640625 C 5.128906 -5.515625 4.832031 -5.425781 4.5 -5.375 L 4.5 -5.328125 C 5.320312 -5.222656 5.945312 -4.957031 6.375 -4.53125 C 6.800781 -4.113281 7.015625 -3.570312 7.015625 -2.90625 C 7.015625 -2.457031 6.9375 -2.046875 6.78125 -1.671875 C 6.632812 -1.296875 6.40625 -0.972656 6.09375 -0.703125 C 5.789062 -0.441406 5.40625 -0.234375 4.9375 -0.078125 C 4.46875 0.0664062 3.910156 0.140625 3.265625 0.140625 C 2.765625 0.140625 2.289062 0.0976562 1.84375 0.015625 C 1.394531 -0.0546875 0.972656 -0.195312 0.578125 -0.40625 L 0.578125 -1.59375 C 0.972656 -1.382812 1.40625 -1.21875 1.875 -1.09375 C 2.351562 -0.976562 2.8125 -0.921875 3.25 -0.921875 C 3.675781 -0.921875 4.039062 -0.96875 4.34375 -1.0625 C 4.65625 -1.15625 4.910156 -1.285156 5.109375 -1.453125 C 5.316406 -1.628906 5.46875 -1.84375 5.5625 -2.09375 C 5.664062 -2.34375 5.71875 -2.625 5.71875 -2.9375 C 5.71875 -3.257812 5.65625 -3.53125 5.53125 -3.75 C 5.40625 -3.976562 5.226562 -4.164062 5 -4.3125 C 4.769531 -4.457031 4.488281 -4.5625 4.15625 -4.625 C 3.832031 -4.695312 3.460938 -4.734375 3.046875 -4.734375 L 2.125 -4.734375 L 2.125 -5.796875 L 3.046875 -5.796875 C 3.429688 -5.796875 3.769531 -5.84375 4.0625 -5.9375 C 4.351562 -6.03125 4.597656 -6.160156 4.796875 -6.328125 C 4.992188 -6.503906 5.140625 -6.707031 5.234375 -6.9375 C 5.335938 -7.175781 5.390625 -7.4375 5.390625 -7.71875 C 5.390625 -7.96875 5.347656 -8.1875 5.265625 -8.375 C 5.179688 -8.5625 5.0625 -8.722656 4.90625 -8.859375 C 4.757812 -8.992188 4.578125 -9.09375 4.359375 -9.15625 C 4.148438 -9.226562 3.914062 -9.265625 3.65625 -9.265625 C 3.15625 -9.265625 2.710938 -9.1875 2.328125 -9.03125 C 1.953125 -8.875 1.59375 -8.671875 1.25 -8.421875 L 0.609375 -9.296875 C 0.785156 -9.441406 0.984375 -9.578125 1.203125 -9.703125 C 1.421875 -9.828125 1.65625 -9.9375 1.90625 -10.03125 C 2.164062 -10.125 2.441406 -10.195312 2.734375 -10.25 C 3.023438 -10.3125 3.332031 -10.34375 3.65625 -10.34375 C 4.15625 -10.34375 4.59375 -10.28125 4.96875 -10.15625 C 5.351562 -10.03125 5.671875 -9.851562 5.921875 -9.625 C 6.179688 -9.394531 6.375 -9.125 6.5 -8.8125 C 6.632812 -8.507812 6.703125 -8.175781 6.703125 -7.8125 Z M 6.703125 -7.8125 "/></g></g></g><g fill="#000000" fill-opacity="1"><g transform="translate(99.900663, 16.738396)"><g/></g></g><g fill="#000000" fill-opacity="1"><g transform="translate(103.609266, 16.738396)"><g/></g></g><g fill="#000000" fill-opacity="1"><g transform="translate(107.317868, 16.738396)"><g/></g></g><g fill="#000000" fill-opacity="1"><g transform="translate(111.026471, 16.738396)"><g/></g></g><g fill="#000000" fill-opacity="1"><g transform="translate(114.735073, 16.738396)"><g/></g></g><g fill="#000000" fill-opacity="1"><g transform="translate(118.443676, 16.738396)"><g/></g></g><g fill="#000000" fill-opacity="1"><g transform="translate(122.152873, 16.738396)"><g><path d="M 7.578125 -2.28125 L 6.09375 -2.28125 L 6.09375 0 L 4.875 0 L 4.875 -2.28125 L 0.15625 -2.28125 L 0.15625 -3.390625 L 4.78125 -10.25 L 6.09375 -10.25 L 6.09375 -3.4375 L 7.578125 -3.4375 Z M 4.875 -3.4375 L 4.875 -5.921875 C 4.875 -6.179688 4.875 -6.453125 4.875 -6.734375 C 4.882812 -7.023438 4.894531 -7.304688 4.90625 -7.578125 C 4.914062 -7.847656 4.925781 -8.101562 4.9375 -8.34375 C 4.945312 -8.582031 4.953125 -8.78125 4.953125 -8.9375 L 4.890625 -8.9375 C 4.859375 -8.84375 4.816406 -8.738281 4.765625 -8.625 C 4.722656 -8.507812 4.671875 -8.394531 4.609375 -8.28125 C 4.554688 -8.164062 4.5 -8.054688 4.4375 -7.953125 C 4.375 -7.847656 4.316406 -7.757812 4.265625 -7.6875 L 1.40625 -3.4375 Z M 4.875 -3.4375 "/></g></g></g><g fill="#000000" fill-opacity="1"><g transform="translate(130.021815, 16.738396)"><g/></g></g><g fill="#000000" fill-opacity="1"><g transform="translate(133.730417, 16.738396)"><g/></g></g><g fill="#000000" fill-opacity="1"><g transform="translate(137.43902, 16.738396)"><g/></g></g><g fill="#000000" fill-opacity="1"><g transform="translate(141.147622, 16.738396)"><g/></g></g><g fill="#000000" fill-opacity="1"><g transform="translate(144.856225, 16.738396)"><g/></g></g><g fill="#000000" fill-opacity="1"><g transform="translate(148.564827, 16.738396)"><g/></g></g><g fill="#000000" fill-opacity="1"><g transform="translate(152.274025, 16.738396)"><g><path d="M 3.796875 -6.25 C 4.253906 -6.25 4.679688 -6.1875 5.078125 -6.0625 C 5.484375 -5.9375 5.832031 -5.75 6.125 -5.5 C 6.414062 -5.25 6.644531 -4.9375 6.8125 -4.5625 C 6.988281 -4.1875 7.078125 -3.753906 7.078125 -3.265625 C 7.078125 -2.734375 6.992188 -2.253906 6.828125 -1.828125 C 6.671875 -1.410156 6.4375 -1.054688 6.125 -0.765625 C 5.8125 -0.472656 5.425781 -0.25 4.96875 -0.09375 C 4.507812 0.0625 3.984375 0.140625 3.390625 0.140625 C 3.160156 0.140625 2.925781 0.125 2.6875 0.09375 C 2.457031 0.0703125 2.238281 0.0390625 2.03125 0 C 1.820312 -0.0390625 1.617188 -0.09375 1.421875 -0.15625 C 1.234375 -0.226562 1.0625 -0.3125 0.90625 -0.40625 L 0.90625 -1.609375 C 1.0625 -1.503906 1.242188 -1.410156 1.453125 -1.328125 C 1.660156 -1.242188 1.878906 -1.171875 2.109375 -1.109375 C 2.335938 -1.054688 2.566406 -1.015625 2.796875 -0.984375 C 3.023438 -0.953125 3.238281 -0.9375 3.4375 -0.9375 C 3.800781 -0.9375 4.125 -0.976562 4.40625 -1.0625 C 4.695312 -1.15625 4.941406 -1.289062 5.140625 -1.46875 C 5.347656 -1.65625 5.503906 -1.882812 5.609375 -2.15625 C 5.710938 -2.425781 5.765625 -2.75 5.765625 -3.125 C 5.765625 -3.789062 5.5625 -4.300781 5.15625 -4.65625 C 4.75 -5.007812 4.15625 -5.1875 3.375 -5.1875 C 3.25 -5.1875 3.109375 -5.175781 2.953125 -5.15625 C 2.804688 -5.144531 2.660156 -5.128906 2.515625 -5.109375 C 2.367188 -5.097656 2.226562 -5.082031 2.09375 -5.0625 C 1.96875 -5.039062 1.851562 -5.019531 1.75 -5 L 1.125 -5.390625 L 1.515625 -10.1875 L 6.328125 -10.1875 L 6.328125 -9.03125 L 2.609375 -9.03125 L 2.34375 -6.109375 C 2.488281 -6.140625 2.679688 -6.171875 2.921875 -6.203125 C 3.171875 -6.234375 3.460938 -6.25 3.796875 -6.25 Z M 3.796875 -6.25 "/></g></g></g><g fill="#000000" fill-opacity="1"><g transform="translate(160.142966, 16.738396)"><g/></g></g><g fill="#000000" fill-opacity="1"><g transform="translate(163.851569, 16.738396)"><g/></g></g><g fill="#000000" fill-opacity="1"><g transform="translate(167.560171, 16.738396)"><g/></g></g><g fill="#000000" fill-opacity="1"><g transform="translate(171.268774, 16.738396)"><g/></g></g><g fill="#000000" fill-opacity="1"><g transform="translate(174.977376, 16.738396)"><g/></g></g><g fill="#000000" fill-opacity="1"><g transform="translate(178.685979, 16.738396)"><g/></g></g><g fill="#000000" fill-opacity="1"><g transform="translate(182.395176, 16.738396)"><g><path d="M 0.78125 -4.359375 C 0.78125 -4.847656 0.804688 -5.332031 0.859375 -5.8125 C 0.910156 -6.300781 0.992188 -6.765625 1.109375 -7.203125 C 1.234375 -7.648438 1.40625 -8.0625 1.625 -8.4375 C 1.84375 -8.820312 2.113281 -9.15625 2.4375 -9.4375 C 2.769531 -9.71875 3.164062 -9.9375 3.625 -10.09375 C 4.082031 -10.257812 4.625 -10.34375 5.25 -10.34375 C 5.332031 -10.34375 5.425781 -10.335938 5.53125 -10.328125 C 5.644531 -10.328125 5.753906 -10.320312 5.859375 -10.3125 C 5.972656 -10.300781 6.078125 -10.285156 6.171875 -10.265625 C 6.273438 -10.253906 6.363281 -10.234375 6.4375 -10.203125 L 6.4375 -9.125 C 6.28125 -9.1875 6.097656 -9.226562 5.890625 -9.25 C 5.679688 -9.28125 5.476562 -9.296875 5.28125 -9.296875 C 4.863281 -9.296875 4.492188 -9.242188 4.171875 -9.140625 C 3.859375 -9.046875 3.582031 -8.90625 3.34375 -8.71875 C 3.113281 -8.539062 2.921875 -8.328125 2.765625 -8.078125 C 2.609375 -7.828125 2.484375 -7.546875 2.390625 -7.234375 C 2.296875 -6.929688 2.222656 -6.609375 2.171875 -6.265625 C 2.128906 -5.921875 2.097656 -5.5625 2.078125 -5.1875 L 2.171875 -5.1875 C 2.265625 -5.363281 2.375 -5.523438 2.5 -5.671875 C 2.632812 -5.816406 2.789062 -5.941406 2.96875 -6.046875 C 3.144531 -6.148438 3.34375 -6.226562 3.5625 -6.28125 C 3.78125 -6.34375 4.03125 -6.375 4.3125 -6.375 C 4.75 -6.375 5.144531 -6.304688 5.5 -6.171875 C 5.863281 -6.035156 6.171875 -5.832031 6.421875 -5.5625 C 6.671875 -5.300781 6.863281 -4.976562 7 -4.59375 C 7.132812 -4.21875 7.203125 -3.78125 7.203125 -3.28125 C 7.203125 -2.75 7.128906 -2.269531 6.984375 -1.84375 C 6.847656 -1.425781 6.644531 -1.066406 6.375 -0.765625 C 6.101562 -0.472656 5.773438 -0.25 5.390625 -0.09375 C 5.015625 0.0625 4.585938 0.140625 4.109375 0.140625 C 3.648438 0.140625 3.21875 0.0507812 2.8125 -0.125 C 2.40625 -0.3125 2.050781 -0.585938 1.75 -0.953125 C 1.445312 -1.328125 1.207031 -1.796875 1.03125 -2.359375 C 0.863281 -2.921875 0.78125 -3.585938 0.78125 -4.359375 Z M 4.09375 -0.921875 C 4.375 -0.921875 4.628906 -0.96875 4.859375 -1.0625 C 5.085938 -1.164062 5.285156 -1.3125 5.453125 -1.5 C 5.628906 -1.695312 5.757812 -1.941406 5.84375 -2.234375 C 5.9375 -2.523438 5.984375 -2.875 5.984375 -3.28125 C 5.984375 -3.601562 5.941406 -3.894531 5.859375 -4.15625 C 5.785156 -4.414062 5.671875 -4.632812 5.515625 -4.8125 C 5.367188 -5 5.179688 -5.140625 4.953125 -5.234375 C 4.722656 -5.335938 4.453125 -5.390625 4.140625 -5.390625 C 3.828125 -5.390625 3.539062 -5.332031 3.28125 -5.21875 C 3.03125 -5.113281 2.8125 -4.972656 2.625 -4.796875 C 2.445312 -4.617188 2.304688 -4.414062 2.203125 -4.1875 C 2.109375 -3.96875 2.0625 -3.75 2.0625 -3.53125 C 2.0625 -3.21875 2.101562 -2.90625 2.1875 -2.59375 C 2.269531 -2.289062 2.394531 -2.015625 2.5625 -1.765625 C 2.738281 -1.515625 2.953125 -1.3125 3.203125 -1.15625 C 3.460938 -1 3.757812 -0.921875 4.09375 -0.921875 Z M 4.09375 -0.921875 "/></g></g></g><g fill="#000000" fill-opacity="1"><g transform="translate(190.264123, 16.738396)"><g/></g></g><g fill="#000000" fill-opacity="1"><g transform="translate(193.972725, 16.738396)"><g/></g></g><g fill="#000000" fill-opacity="1"><g transform="translate(197.681328, 16.738396)"><g/></g></g><g fill="#000000" fill-opacity="1"><g transform="translate(201.38993, 16.738396)"><g/></g></g><g fill="#000000" fill-opacity="1"><g transform="translate(205.098533, 16.738396)"><g/></g></g><g fill="#000000" fill-opacity="1"><g transform="translate(208.807135, 16.738396)"><g/></g></g><g fill="#000000" fill-opacity="1"><g transform="translate(212.516333, 16.738396)"><g><path d="M 1.953125 0 L 5.890625 -9.03125 L 0.625 -9.03125 L 0.625 -10.1875 L 7.1875 -10.1875 L 7.1875 -9.1875 L 3.3125 0 Z M 1.953125 0 "/></g></g></g><g fill="#000000" fill-opacity="1"><g transform="translate(220.385269, 16.738396)"><g/></g></g><g fill="#000000" fill-opacity="1"><g transform="translate(224.093872, 16.738396)"><g/></g></g><g fill="#000000" fill-opacity="1"><g transform="translate(227.802474, 16.738396)"><g/></g></g><g fill="#000000" fill-opacity="1"><g transform="translate(231.511077, 16.738396)"><g/></g></g><g fill="#000000" fill-opacity="1"><g transform="translate(235.219679, 16.738396)"><g/></g></g><g fill="#000000" fill-opacity="1"><g transform="translate(238.928282, 16.738396)"><g/></g></g><g fill="#000000" fill-opacity="1"><g transform="translate(242.637479, 16.738396)"><g><path d="M 3.9375 -10.359375 C 4.332031 -10.359375 4.703125 -10.304688 5.046875 -10.203125 C 5.390625 -10.097656 5.691406 -9.941406 5.953125 -9.734375 C 6.222656 -9.535156 6.429688 -9.28125 6.578125 -8.96875 C 6.734375 -8.664062 6.8125 -8.3125 6.8125 -7.90625 C 6.8125 -7.59375 6.765625 -7.3125 6.671875 -7.0625 C 6.578125 -6.8125 6.445312 -6.582031 6.28125 -6.375 C 6.125 -6.175781 5.929688 -5.992188 5.703125 -5.828125 C 5.484375 -5.671875 5.242188 -5.523438 4.984375 -5.390625 C 5.253906 -5.253906 5.519531 -5.097656 5.78125 -4.921875 C 6.039062 -4.742188 6.269531 -4.539062 6.46875 -4.3125 C 6.664062 -4.09375 6.828125 -3.847656 6.953125 -3.578125 C 7.078125 -3.304688 7.140625 -3 7.140625 -2.65625 C 7.140625 -2.226562 7.0625 -1.835938 6.90625 -1.484375 C 6.75 -1.140625 6.53125 -0.847656 6.25 -0.609375 C 5.96875 -0.367188 5.628906 -0.179688 5.234375 -0.046875 C 4.847656 0.078125 4.414062 0.140625 3.9375 0.140625 C 3.425781 0.140625 2.972656 0.078125 2.578125 -0.046875 C 2.179688 -0.171875 1.847656 -0.347656 1.578125 -0.578125 C 1.304688 -0.816406 1.097656 -1.101562 0.953125 -1.4375 C 0.804688 -1.78125 0.734375 -2.164062 0.734375 -2.59375 C 0.734375 -2.945312 0.785156 -3.257812 0.890625 -3.53125 C 0.992188 -3.8125 1.132812 -4.0625 1.3125 -4.28125 C 1.488281 -4.507812 1.695312 -4.707031 1.9375 -4.875 C 2.1875 -5.050781 2.445312 -5.207031 2.71875 -5.34375 C 2.488281 -5.488281 2.269531 -5.644531 2.0625 -5.8125 C 1.863281 -5.976562 1.691406 -6.164062 1.546875 -6.375 C 1.398438 -6.582031 1.285156 -6.8125 1.203125 -7.0625 C 1.117188 -7.320312 1.078125 -7.609375 1.078125 -7.921875 C 1.078125 -8.316406 1.15625 -8.664062 1.3125 -8.96875 C 1.46875 -9.28125 1.675781 -9.535156 1.9375 -9.734375 C 2.207031 -9.941406 2.515625 -10.097656 2.859375 -10.203125 C 3.203125 -10.304688 3.5625 -10.359375 3.9375 -10.359375 Z M 1.984375 -2.59375 C 1.984375 -2.34375 2.019531 -2.113281 2.09375 -1.90625 C 2.164062 -1.695312 2.28125 -1.519531 2.4375 -1.375 C 2.601562 -1.226562 2.804688 -1.113281 3.046875 -1.03125 C 3.285156 -0.945312 3.570312 -0.90625 3.90625 -0.90625 C 4.238281 -0.90625 4.523438 -0.945312 4.765625 -1.03125 C 5.015625 -1.113281 5.222656 -1.226562 5.390625 -1.375 C 5.554688 -1.53125 5.679688 -1.710938 5.765625 -1.921875 C 5.859375 -2.140625 5.90625 -2.378906 5.90625 -2.640625 C 5.90625 -2.878906 5.859375 -3.097656 5.765625 -3.296875 C 5.671875 -3.492188 5.539062 -3.675781 5.375 -3.84375 C 5.207031 -4.007812 5.003906 -4.164062 4.765625 -4.3125 C 4.523438 -4.46875 4.257812 -4.613281 3.96875 -4.75 L 3.765625 -4.859375 C 3.171875 -4.578125 2.722656 -4.253906 2.421875 -3.890625 C 2.128906 -3.535156 1.984375 -3.101562 1.984375 -2.59375 Z M 3.921875 -9.296875 C 3.429688 -9.296875 3.039062 -9.171875 2.75 -8.921875 C 2.457031 -8.679688 2.3125 -8.328125 2.3125 -7.859375 C 2.3125 -7.585938 2.351562 -7.351562 2.4375 -7.15625 C 2.519531 -6.96875 2.628906 -6.800781 2.765625 -6.65625 C 2.910156 -6.507812 3.082031 -6.375 3.28125 -6.25 C 3.488281 -6.132812 3.710938 -6.019531 3.953125 -5.90625 C 4.171875 -6.007812 4.378906 -6.117188 4.578125 -6.234375 C 4.773438 -6.359375 4.945312 -6.5 5.09375 -6.65625 C 5.25 -6.8125 5.367188 -6.984375 5.453125 -7.171875 C 5.535156 -7.367188 5.578125 -7.597656 5.578125 -7.859375 C 5.578125 -8.328125 5.425781 -8.679688 5.125 -8.921875 C 4.832031 -9.171875 4.429688 -9.296875 3.921875 -9.296875 Z M 3.921875 -9.296875 "/></g></g></g><g fill="#000000" fill-opacity="1"><g transform="translate(250.506426, 16.738396)"><g/></g></g><g fill="#000000" fill-opacity="1"><g transform="translate(254.215028, 16.738396)"><g/></g></g><g fill="#000000" fill-opacity="1"><g transform="translate(257.923631, 16.738396)"><g/></g></g><g fill="#000000" fill-opacity="1"><g transform="translate(261.632233, 16.738396)"><g/></g></g><g fill="#000000" fill-opacity="1"><g transform="translate(265.340836, 16.738396)"><g/></g></g><g fill="#000000" fill-opacity="1"><g transform="translate(269.049438, 16.738396)"><g/></g></g><g fill="#000000" fill-opacity="1"><g transform="translate(272.758636, 16.738396)"><g><path d="M 7.171875 -5.84375 C 7.171875 -5.351562 7.144531 -4.863281 7.09375 -4.375 C 7.039062 -3.894531 6.953125 -3.429688 6.828125 -2.984375 C 6.710938 -2.546875 6.546875 -2.132812 6.328125 -1.75 C 6.117188 -1.363281 5.847656 -1.03125 5.515625 -0.75 C 5.179688 -0.476562 4.785156 -0.257812 4.328125 -0.09375 C 3.867188 0.0625 3.332031 0.140625 2.71875 0.140625 C 2.625 0.140625 2.523438 0.132812 2.421875 0.125 C 2.316406 0.125 2.207031 0.117188 2.09375 0.109375 C 1.988281 0.0976562 1.882812 0.0820312 1.78125 0.0625 C 1.675781 0.0507812 1.585938 0.0351562 1.515625 0.015625 L 1.515625 -1.078125 C 1.671875 -1.015625 1.851562 -0.96875 2.0625 -0.9375 C 2.269531 -0.914062 2.472656 -0.90625 2.671875 -0.90625 C 3.296875 -0.90625 3.8125 -1.015625 4.21875 -1.234375 C 4.625 -1.453125 4.941406 -1.742188 5.171875 -2.109375 C 5.410156 -2.484375 5.582031 -2.921875 5.6875 -3.421875 C 5.789062 -3.921875 5.851562 -4.445312 5.875 -5 L 5.78125 -5 C 5.6875 -4.832031 5.570312 -4.675781 5.4375 -4.53125 C 5.3125 -4.382812 5.160156 -4.257812 4.984375 -4.15625 C 4.804688 -4.050781 4.601562 -3.96875 4.375 -3.90625 C 4.15625 -3.84375 3.910156 -3.8125 3.640625 -3.8125 C 3.203125 -3.8125 2.800781 -3.878906 2.4375 -4.015625 C 2.082031 -4.148438 1.78125 -4.347656 1.53125 -4.609375 C 1.28125 -4.878906 1.082031 -5.207031 0.9375 -5.59375 C 0.800781 -5.976562 0.734375 -6.414062 0.734375 -6.90625 C 0.734375 -7.4375 0.804688 -7.914062 0.953125 -8.34375 C 1.097656 -8.769531 1.304688 -9.128906 1.578125 -9.421875 C 1.847656 -9.710938 2.171875 -9.9375 2.546875 -10.09375 C 2.929688 -10.257812 3.363281 -10.34375 3.84375 -10.34375 C 4.3125 -10.34375 4.75 -10.25 5.15625 -10.0625 C 5.5625 -9.882812 5.910156 -9.609375 6.203125 -9.234375 C 6.503906 -8.867188 6.738281 -8.398438 6.90625 -7.828125 C 7.082031 -7.265625 7.171875 -6.601562 7.171875 -5.84375 Z M 3.859375 -9.265625 C 3.578125 -9.265625 3.320312 -9.21875 3.09375 -9.125 C 2.863281 -9.03125 2.664062 -8.882812 2.5 -8.6875 C 2.332031 -8.5 2.203125 -8.253906 2.109375 -7.953125 C 2.015625 -7.660156 1.96875 -7.3125 1.96875 -6.90625 C 1.96875 -6.582031 2.003906 -6.289062 2.078125 -6.03125 C 2.160156 -5.769531 2.273438 -5.550781 2.421875 -5.375 C 2.578125 -5.195312 2.769531 -5.054688 3 -4.953125 C 3.238281 -4.859375 3.507812 -4.8125 3.8125 -4.8125 C 4.125 -4.8125 4.410156 -4.863281 4.671875 -4.96875 C 4.929688 -5.082031 5.148438 -5.222656 5.328125 -5.390625 C 5.503906 -5.566406 5.644531 -5.765625 5.75 -5.984375 C 5.851562 -6.210938 5.90625 -6.441406 5.90625 -6.671875 C 5.90625 -6.984375 5.859375 -7.289062 5.765625 -7.59375 C 5.679688 -7.90625 5.550781 -8.1875 5.375 -8.4375 C 5.207031 -8.6875 4.992188 -8.882812 4.734375 -9.03125 C 4.484375 -9.1875 4.191406 -9.265625 3.859375 -9.265625 Z M 3.859375 -9.265625 "/></g></g></g><g fill="#000000" fill-opacity="1"><g transform="translate(185.32142, 104.435155)"><g><path d="M 0.359375 2.71875 C 0.179688 2.71875 0.0351562 2.703125 -0.078125 2.671875 C -0.191406 2.648438 -0.289062 2.617188 -0.375 2.578125 L -0.375 1.765625 C -0.28125 1.796875 -0.179688 1.820312 -0.078125 1.84375 C 0.015625 1.863281 0.128906 1.875 0.265625 1.875 C 0.359375 1.875 0.445312 1.859375 0.53125 1.828125 C 0.613281 1.804688 0.6875 1.757812 0.75 1.6875 C 0.820312 1.613281 0.875 1.515625 0.90625 1.390625 C 0.9375 1.273438 0.953125 1.125 0.953125 0.9375 L 0.953125 -6.0625 L 1.96875 -6.0625 L 1.96875 0.875 C 1.96875 1.15625 1.9375 1.40625 1.875 1.625 C 1.8125 1.851562 1.710938 2.046875 1.578125 2.203125 C 1.441406 2.367188 1.273438 2.492188 1.078125 2.578125 C 0.878906 2.671875 0.640625 2.71875 0.359375 2.71875 Z M 0.875 -7.6875 C 0.875 -7.914062 0.929688 -8.078125 1.046875 -8.171875 C 1.160156 -8.273438 1.300781 -8.328125 1.46875 -8.328125 C 1.550781 -8.328125 1.625 -8.3125 1.6875 -8.28125 C 1.757812 -8.257812 1.820312 -8.222656 1.875 -8.171875 C 1.9375 -8.117188 1.984375 -8.050781 2.015625 -7.96875 C 2.046875 -7.894531 2.0625 -7.800781 2.0625 -7.6875 C 2.0625 -7.476562 2 -7.320312 1.875 -7.21875 C 1.757812 -7.113281 1.625 -7.0625 1.46875 -7.0625 C 1.300781 -7.0625 1.160156 -7.113281 1.046875 -7.21875 C 0.929688 -7.320312 0.875 -7.476562 0.875 -7.6875 Z M 0.875 -7.6875 "/></g></g></g><g fill="#000000" fill-opacity="1"><g transform="translate(82.163519, 105.97638)"><g/></g></g><g fill="#000000" fill-opacity="1"><g transform="translate(85.097382, 105.97638)"><g/></g></g><g fill="#000000" fill-opacity="1"><g transform="translate(88.031246, 105.97638)"><g/></g></g><g fill="#000000" fill-opacity="1"><g transform="translate(90.965109, 105.97638)"><g/></g></g><g fill="#000000" fill-opacity="1"><g transform="translate(93.9033, 105.97638)"><g><path d="M 1.890625 -3.125 L 2.625 -4.0625 L 4.25 -6.0625 L 5.40625 -6.0625 L 3.203125 -3.4375 L 5.5625 0 L 4.40625 0 L 2.546875 -2.78125 L 1.953125 -2.328125 L 1.953125 0 L 0.953125 0 L 0.953125 -8.578125 L 1.953125 -8.578125 L 1.953125 -4.640625 L 1.859375 -3.125 Z M 1.890625 -3.125 "/></g></g></g><g fill="#000000" fill-opacity="1"><g transform="translate(99.514313, 105.97638)"><g/></g></g><g fill="#000000" fill-opacity="1"><g transform="translate(102.448177, 105.97638)"><g/></g></g><g fill="#000000" fill-opacity="1"><g transform="translate(105.38204, 105.97638)"><g/></g></g><g fill="#000000" fill-opacity="1"><g transform="translate(108.315904, 105.97638)"><g/></g></g><g fill="#000000" fill-opacity="1"><g transform="translate(3.759397, 43.24971)"><g><path d="M 4.375 0 L 4.171875 -0.84375 L 4.125 -0.84375 C 4 -0.675781 3.875 -0.53125 3.75 -0.40625 C 3.632812 -0.289062 3.503906 -0.191406 3.359375 -0.109375 C 3.222656 -0.0351562 3.066406 0.015625 2.890625 0.046875 C 2.710938 0.0859375 2.503906 0.109375 2.265625 0.109375 C 2.015625 0.109375 1.78125 0.0703125 1.5625 0 C 1.351562 -0.0703125 1.171875 -0.179688 1.015625 -0.328125 C 0.859375 -0.472656 0.734375 -0.660156 0.640625 -0.890625 C 0.554688 -1.117188 0.515625 -1.382812 0.515625 -1.6875 C 0.515625 -2.289062 0.726562 -2.753906 1.15625 -3.078125 C 1.582031 -3.398438 2.226562 -3.578125 3.09375 -3.609375 L 4.109375 -3.65625 L 4.109375 -4.03125 C 4.109375 -4.28125 4.082031 -4.484375 4.03125 -4.640625 C 3.976562 -4.804688 3.898438 -4.941406 3.796875 -5.046875 C 3.691406 -5.148438 3.566406 -5.222656 3.421875 -5.265625 C 3.273438 -5.304688 3.101562 -5.328125 2.90625 -5.328125 C 2.601562 -5.328125 2.320312 -5.28125 2.0625 -5.1875 C 1.800781 -5.101562 1.546875 -5 1.296875 -4.875 L 0.953125 -5.640625 C 1.222656 -5.785156 1.523438 -5.910156 1.859375 -6.015625 C 2.191406 -6.117188 2.539062 -6.171875 2.90625 -6.171875 C 3.28125 -6.171875 3.601562 -6.128906 3.875 -6.046875 C 4.15625 -5.972656 4.382812 -5.851562 4.5625 -5.6875 C 4.738281 -5.53125 4.867188 -5.320312 4.953125 -5.0625 C 5.046875 -4.8125 5.09375 -4.503906 5.09375 -4.140625 L 5.09375 0 Z M 2.53125 -0.703125 C 2.757812 -0.703125 2.96875 -0.734375 3.15625 -0.796875 C 3.34375 -0.867188 3.503906 -0.972656 3.640625 -1.109375 C 3.785156 -1.253906 3.894531 -1.4375 3.96875 -1.65625 C 4.050781 -1.875 4.09375 -2.128906 4.09375 -2.421875 L 4.09375 -2.96875 L 3.3125 -2.921875 C 2.976562 -2.910156 2.695312 -2.875 2.46875 -2.8125 C 2.25 -2.75 2.070312 -2.664062 1.9375 -2.5625 C 1.800781 -2.457031 1.703125 -2.332031 1.640625 -2.1875 C 1.585938 -2.039062 1.5625 -1.875 1.5625 -1.6875 C 1.5625 -1.34375 1.648438 -1.09375 1.828125 -0.9375 C 2.003906 -0.78125 2.238281 -0.703125 2.53125 -0.703125 Z M 2.53125 -0.703125 "/></g></g></g></svg>