<svg xmlns="http://www.w3.org/2000/svg" xmlns:xlink="http://www.w3.org/1999/xlink" width="1080" zoomAndPan="magnify" viewBox="0 0 810 809.999993" height="1080" preserveAspectRatio="xMidYMid meet" version="1.0"><defs><g/><clipPath id="9ae59ac2a5"><path d="M 80.421875 84 L 778 84 L 778 780 L 80.421875 780 Z M 80.421875 84 " clip-rule="nonzero"/></clipPath><clipPath id="7f5c22b223"><path d="M 80.421875 82.617188 L 778.671875 82.617188 L 778.671875 781.617188 L 80.421875 781.617188 Z M 80.421875 82.617188 " clip-rule="nonzero"/></clipPath></defs><g fill="#000000" fill-opacity="1"><g transform="translate(361.530528, 379.724596)"><g><path d="M 3.40625 -18.0625 C 3.78125 -18.0625 4.09375 -17.929688 4.34375 -17.671875 C 4.59375 -17.421875 4.71875 -17.125 4.71875 -16.78125 C 4.71875 -16.40625 4.59375 -16.09375 4.34375 -15.84375 C 4.09375 -15.59375 3.78125 -15.46875 3.40625 -15.46875 C 3.0625 -15.46875 2.757812 -15.59375 2.5 -15.84375 C 2.25 -16.09375 2.125 -16.40625 2.125 -16.78125 C 2.125 -17.125 2.25 -17.421875 2.5 -17.671875 C 2.757812 -17.929688 3.0625 -18.0625 3.40625 -18.0625 Z M 4.515625 -2.609375 C 4.515625 -1.785156 4.644531 -1.222656 4.90625 -0.921875 C 5.175781 -0.617188 5.613281 -0.460938 6.21875 -0.453125 L 6.21875 0 L 0.578125 0 L 0.578125 -0.453125 C 1.265625 -0.453125 1.75 -0.609375 2.03125 -0.921875 C 2.3125 -1.242188 2.453125 -1.820312 2.453125 -2.65625 L 2.453125 -8.734375 C 2.453125 -9.179688 2.351562 -9.546875 2.15625 -9.828125 C 1.957031 -10.109375 1.648438 -10.25 1.234375 -10.25 C 1.046875 -10.25 0.878906 -10.207031 0.734375 -10.125 L 0.578125 -10.578125 L 4.0625 -11.90625 L 4.515625 -11.90625 Z M 4.515625 -2.609375 "/></g></g></g><g fill="#000000" fill-opacity="1"><g transform="translate(368.326733, 379.724596)"><g><path d="M 3.15625 -2.484375 C 3.738281 -2.484375 4.222656 -2.242188 4.609375 -1.765625 C 4.992188 -1.285156 5.1875 -0.679688 5.1875 0.046875 C 5.1875 1.015625 4.882812 1.835938 4.28125 2.515625 C 3.6875 3.191406 2.78125 3.75 1.5625 4.1875 L 1.5625 3.71875 C 2.507812 3.394531 3.195312 2.925781 3.625 2.3125 C 4.0625 1.707031 4.28125 1.101562 4.28125 0.5 C 4.28125 0.332031 4.242188 0.203125 4.171875 0.109375 C 4.097656 0.015625 4.007812 -0.03125 3.90625 -0.03125 C 3.84375 -0.03125 3.707031 0.03125 3.5 0.15625 C 3.300781 0.28125 3.097656 0.34375 2.890625 0.34375 C 2.515625 0.34375 2.195312 0.21875 1.9375 -0.03125 C 1.6875 -0.289062 1.5625 -0.609375 1.5625 -0.984375 C 1.5625 -1.398438 1.710938 -1.753906 2.015625 -2.046875 C 2.328125 -2.335938 2.707031 -2.484375 3.15625 -2.484375 Z M 3.15625 -2.484375 "/></g></g></g><g fill="#000000" fill-opacity="1"><g transform="translate(375.122938, 379.724596)"><g><path d="M 3.6875 -18.0625 C 4.050781 -18.0625 4.359375 -17.929688 4.609375 -17.671875 C 4.859375 -17.421875 4.984375 -17.125 4.984375 -16.78125 C 4.984375 -16.40625 4.859375 -16.09375 4.609375 -15.84375 C 4.359375 -15.59375 4.050781 -15.46875 3.6875 -15.46875 C 3.332031 -15.46875 3.03125 -15.59375 2.78125 -15.84375 C 2.53125 -16.09375 2.40625 -16.40625 2.40625 -16.78125 C 2.40625 -17.125 2.53125 -17.421875 2.78125 -17.671875 C 3.03125 -17.929688 3.332031 -18.0625 3.6875 -18.0625 Z M 4.84375 -0.453125 C 4.84375 1.265625 4.484375 2.65625 3.765625 3.71875 C 3.046875 4.78125 1.925781 5.3125 0.40625 5.3125 C -0.25 5.3125 -0.785156 5.191406 -1.203125 4.953125 C -1.617188 4.722656 -1.828125 4.425781 -1.828125 4.0625 C -1.828125 3.78125 -1.722656 3.535156 -1.515625 3.328125 C -1.304688 3.117188 -1.0625 3.015625 -0.78125 3.015625 C -0.507812 3.015625 -0.269531 3.078125 -0.0625 3.203125 C 0.144531 3.328125 0.382812 3.503906 0.65625 3.734375 C 0.832031 3.921875 0.992188 4.0625 1.140625 4.15625 C 1.296875 4.257812 1.457031 4.3125 1.625 4.3125 C 2.0625 4.3125 2.363281 4.09375 2.53125 3.65625 C 2.695312 3.226562 2.78125 2.726562 2.78125 2.15625 L 2.78125 -8.546875 C 2.78125 -9.128906 2.679688 -9.570312 2.484375 -9.875 C 2.285156 -10.175781 1.992188 -10.328125 1.609375 -10.328125 C 1.335938 -10.328125 1.09375 -10.28125 0.875 -10.1875 L 0.734375 -10.640625 L 4.40625 -11.90625 L 4.84375 -11.90625 Z M 4.84375 -0.453125 "/></g></g></g><g fill="#000000" fill-opacity="1"><g transform="translate(466.248883, 382.12132)"><g><path d="M 3.9375 0 L 1.921875 0 L 1.921875 -12.140625 L 3.9375 -12.140625 Z M 1.765625 -15.421875 C 1.765625 -15.859375 1.875 -16.175781 2.09375 -16.375 C 2.320312 -16.582031 2.601562 -16.6875 2.9375 -16.6875 C 3.101562 -16.6875 3.253906 -16.660156 3.390625 -16.609375 C 3.535156 -16.554688 3.660156 -16.476562 3.765625 -16.375 C 3.878906 -16.28125 3.96875 -16.148438 4.03125 -15.984375 C 4.09375 -15.828125 4.125 -15.640625 4.125 -15.421875 C 4.125 -14.992188 4.003906 -14.675781 3.765625 -14.46875 C 3.535156 -14.257812 3.257812 -14.15625 2.9375 -14.15625 C 2.601562 -14.15625 2.320312 -14.253906 2.09375 -14.453125 C 1.875 -14.660156 1.765625 -14.984375 1.765625 -15.421875 Z M 1.765625 -15.421875 "/></g></g></g><g fill="#000000" fill-opacity="1"><g transform="translate(472.105686, 382.12132)"><g><path d="M 4 -2.625 L 4.171875 -2.375 C 4.066406 -1.976562 3.941406 -1.554688 3.796875 -1.109375 C 3.648438 -0.660156 3.488281 -0.207031 3.3125 0.25 C 3.144531 0.707031 2.96875 1.160156 2.78125 1.609375 C 2.59375 2.066406 2.40625 2.503906 2.21875 2.921875 L 0.703125 2.921875 C 0.804688 2.472656 0.910156 2.003906 1.015625 1.515625 C 1.128906 1.023438 1.234375 0.539062 1.328125 0.0625 C 1.429688 -0.414062 1.519531 -0.882812 1.59375 -1.34375 C 1.675781 -1.8125 1.75 -2.238281 1.8125 -2.625 Z M 4 -2.625 "/></g></g></g><g fill="#000000" fill-opacity="1"><g transform="translate(477.763579, 382.12132)"><g><path d="M 0.734375 5.4375 C 0.378906 5.4375 0.0859375 5.410156 -0.140625 5.359375 C -0.378906 5.304688 -0.582031 5.238281 -0.75 5.15625 L -0.75 3.53125 C -0.5625 3.601562 -0.367188 3.660156 -0.171875 3.703125 C 0.0234375 3.742188 0.253906 3.765625 0.515625 3.765625 C 0.710938 3.765625 0.894531 3.734375 1.0625 3.671875 C 1.238281 3.617188 1.390625 3.519531 1.515625 3.375 C 1.648438 3.226562 1.75 3.035156 1.8125 2.796875 C 1.882812 2.554688 1.921875 2.25 1.921875 1.875 L 1.921875 -12.140625 L 3.9375 -12.140625 L 3.9375 1.75 C 3.9375 2.3125 3.875 2.816406 3.75 3.265625 C 3.625 3.722656 3.425781 4.113281 3.15625 4.4375 C 2.894531 4.757812 2.5625 5.003906 2.15625 5.171875 C 1.757812 5.347656 1.285156 5.4375 0.734375 5.4375 Z M 1.765625 -15.421875 C 1.765625 -15.859375 1.875 -16.175781 2.09375 -16.375 C 2.320312 -16.582031 2.601562 -16.6875 2.9375 -16.6875 C 3.101562 -16.6875 3.253906 -16.660156 3.390625 -16.609375 C 3.535156 -16.554688 3.660156 -16.476562 3.765625 -16.375 C 3.878906 -16.28125 3.96875 -16.148438 4.03125 -15.984375 C 4.09375 -15.828125 4.125 -15.640625 4.125 -15.421875 C 4.125 -14.992188 4.003906 -14.675781 3.765625 -14.46875 C 3.535156 -14.257812 3.257812 -14.15625 2.9375 -14.15625 C 2.601562 -14.15625 2.320312 -14.253906 2.09375 -14.453125 C 1.875 -14.660156 1.765625 -14.984375 1.765625 -15.421875 Z M 1.765625 -15.421875 "/></g></g></g><g fill="#000000" fill-opacity="1"><g transform="translate(483.620382, 382.12132)"><g><path d="M 5.40625 -7.15625 L 1.125 -7.15625 L 1.125 -8.8125 L 5.40625 -8.8125 L 5.40625 -13.109375 L 7.0625 -13.109375 L 7.0625 -8.8125 L 11.34375 -8.8125 L 11.34375 -7.15625 L 7.0625 -7.15625 L 7.0625 -2.890625 L 5.40625 -2.890625 Z M 5.40625 -7.15625 "/></g></g></g><g fill="#000000" fill-opacity="1"><g transform="translate(496.085426, 382.12132)"><g><path d="M 7.859375 0 L 5.921875 0 L 5.921875 -10.09375 C 5.921875 -10.40625 5.921875 -10.742188 5.921875 -11.109375 C 5.921875 -11.472656 5.925781 -11.832031 5.9375 -12.1875 C 5.945312 -12.539062 5.957031 -12.878906 5.96875 -13.203125 C 5.976562 -13.535156 5.988281 -13.828125 6 -14.078125 C 5.875 -13.953125 5.765625 -13.835938 5.671875 -13.734375 C 5.578125 -13.640625 5.476562 -13.546875 5.375 -13.453125 C 5.28125 -13.367188 5.175781 -13.273438 5.0625 -13.171875 C 4.945312 -13.078125 4.816406 -12.960938 4.671875 -12.828125 L 3.03125 -11.5 L 1.96875 -12.859375 L 6.203125 -16.15625 L 7.859375 -16.15625 Z M 7.859375 0 "/></g></g></g><g fill="#000000" fill-opacity="1"><g transform="translate(451.781156, 493.97241)"><g><path d="M 3.078125 -16.296875 C 3.410156 -16.296875 3.6875 -16.179688 3.90625 -15.953125 C 4.132812 -15.734375 4.25 -15.460938 4.25 -15.140625 C 4.25 -14.816406 4.132812 -14.539062 3.90625 -14.3125 C 3.6875 -14.082031 3.410156 -13.96875 3.078125 -13.96875 C 2.765625 -13.96875 2.492188 -14.082031 2.265625 -14.3125 C 2.035156 -14.539062 1.921875 -14.816406 1.921875 -15.140625 C 1.921875 -15.460938 2.035156 -15.734375 2.265625 -15.953125 C 2.492188 -16.179688 2.765625 -16.296875 3.078125 -16.296875 Z M 4.078125 -2.359375 C 4.078125 -1.617188 4.195312 -1.113281 4.4375 -0.84375 C 4.675781 -0.570312 5.066406 -0.425781 5.609375 -0.40625 L 5.609375 0 L 0.515625 0 L 0.515625 -0.40625 C 1.140625 -0.40625 1.578125 -0.546875 1.828125 -0.828125 C 2.085938 -1.117188 2.21875 -1.644531 2.21875 -2.40625 L 2.21875 -7.875 C 2.21875 -8.28125 2.125 -8.613281 1.9375 -8.875 C 1.757812 -9.132812 1.484375 -9.265625 1.109375 -9.265625 C 0.941406 -9.265625 0.789062 -9.222656 0.65625 -9.140625 L 0.515625 -9.546875 L 3.671875 -10.75 L 4.078125 -10.75 Z M 4.078125 -2.359375 "/></g></g></g><g fill="#000000" fill-opacity="1"><g transform="translate(457.914326, 493.97241)"><g><path d="M 8.234375 -13.75 L 8.234375 -8.4375 L 13.546875 -8.4375 L 13.546875 -7.0625 L 8.234375 -7.0625 L 8.234375 -1.765625 L 6.859375 -1.765625 L 6.859375 -7.0625 L 1.5625 -7.0625 L 1.5625 -8.4375 L 6.859375 -8.4375 L 6.859375 -13.75 Z M 8.234375 -13.75 "/></g></g></g><g fill="#000000" fill-opacity="1"><g transform="translate(473.009614, 493.97241)"><g><path d="M 6.703125 -15.890625 L 6.703125 -2.171875 C 6.703125 -1.671875 6.769531 -1.289062 6.90625 -1.03125 C 7.050781 -0.78125 7.253906 -0.613281 7.515625 -0.53125 C 7.785156 -0.445312 8.15625 -0.40625 8.625 -0.40625 L 8.625 0 L 2.828125 0 L 2.828125 -0.40625 C 3.566406 -0.40625 4.078125 -0.53125 4.359375 -0.78125 C 4.640625 -1.03125 4.78125 -1.488281 4.78125 -2.15625 L 4.78125 -12.453125 C 4.78125 -13.523438 4.5 -14.0625 3.9375 -14.0625 C 3.664062 -14.0625 3.296875 -13.941406 2.828125 -13.703125 L 2.609375 -14.0625 L 6.265625 -15.890625 Z M 6.703125 -15.890625 "/></g></g></g><g fill="#000000" fill-opacity="1"><g transform="translate(484.325424, 493.97241)"><g><path d="M 2.859375 -2.234375 C 3.378906 -2.234375 3.8125 -2.019531 4.15625 -1.59375 C 4.507812 -1.164062 4.6875 -0.617188 4.6875 0.046875 C 4.6875 0.921875 4.414062 1.660156 3.875 2.265625 C 3.332031 2.878906 2.507812 3.382812 1.40625 3.78125 L 1.40625 3.34375 C 2.257812 3.0625 2.882812 2.644531 3.28125 2.09375 C 3.675781 1.539062 3.875 0.992188 3.875 0.453125 C 3.875 0.296875 3.835938 0.175781 3.765625 0.09375 C 3.703125 0.0195312 3.625 -0.015625 3.53125 -0.015625 C 3.46875 -0.015625 3.34375 0.0351562 3.15625 0.140625 C 2.976562 0.253906 2.796875 0.3125 2.609375 0.3125 C 2.273438 0.3125 1.988281 0.195312 1.75 -0.03125 C 1.519531 -0.269531 1.40625 -0.554688 1.40625 -0.890625 C 1.40625 -1.265625 1.539062 -1.582031 1.8125 -1.84375 C 2.09375 -2.101562 2.441406 -2.234375 2.859375 -2.234375 Z M 2.859375 -2.234375 "/></g></g></g><g fill="#000000" fill-opacity="1"><g transform="translate(490.458594, 493.97241)"><g><path d="M 3.328125 -16.296875 C 3.660156 -16.296875 3.9375 -16.179688 4.15625 -15.953125 C 4.382812 -15.734375 4.5 -15.460938 4.5 -15.140625 C 4.5 -14.816406 4.382812 -14.539062 4.15625 -14.3125 C 3.9375 -14.082031 3.660156 -13.96875 3.328125 -13.96875 C 3.015625 -13.96875 2.742188 -14.082031 2.515625 -14.3125 C 2.285156 -14.539062 2.171875 -14.816406 2.171875 -15.140625 C 2.171875 -15.460938 2.285156 -15.734375 2.515625 -15.953125 C 2.742188 -16.179688 3.015625 -16.296875 3.328125 -16.296875 Z M 4.375 -0.40625 C 4.375 1.144531 4.046875 2.398438 3.390625 3.359375 C 2.742188 4.316406 1.734375 4.796875 0.359375 4.796875 C -0.222656 4.796875 -0.703125 4.691406 -1.078125 4.484375 C -1.460938 4.273438 -1.65625 4.003906 -1.65625 3.671875 C -1.65625 3.410156 -1.5625 3.1875 -1.375 3 C -1.1875 2.8125 -0.960938 2.71875 -0.703125 2.71875 C -0.460938 2.71875 -0.25 2.773438 -0.0625 2.890625 C 0.125 3.003906 0.34375 3.164062 0.59375 3.375 C 0.757812 3.539062 0.910156 3.664062 1.046875 3.75 C 1.179688 3.84375 1.320312 3.890625 1.46875 3.890625 C 1.863281 3.890625 2.132812 3.691406 2.28125 3.296875 C 2.4375 2.910156 2.515625 2.460938 2.515625 1.953125 L 2.515625 -7.71875 C 2.515625 -8.25 2.421875 -8.648438 2.234375 -8.921875 C 2.054688 -9.191406 1.796875 -9.328125 1.453125 -9.328125 C 1.210938 -9.328125 0.992188 -9.28125 0.796875 -9.1875 L 0.65625 -9.59375 L 3.984375 -10.75 L 4.375 -10.75 Z M 4.375 -0.40625 "/></g></g></g><g fill="#000000" fill-opacity="1"><g transform="translate(496.591765, 493.97241)"><g><path d="M 8.234375 -13.75 L 8.234375 -8.4375 L 13.546875 -8.4375 L 13.546875 -7.0625 L 8.234375 -7.0625 L 8.234375 -1.765625 L 6.859375 -1.765625 L 6.859375 -7.0625 L 1.5625 -7.0625 L 1.5625 -8.4375 L 6.859375 -8.4375 L 6.859375 -13.75 Z M 8.234375 -13.75 "/></g></g></g><g fill="#000000" fill-opacity="1"><g transform="translate(511.687053, 493.97241)"><g><path d="M 6.703125 -15.890625 L 6.703125 -2.171875 C 6.703125 -1.671875 6.769531 -1.289062 6.90625 -1.03125 C 7.050781 -0.78125 7.253906 -0.613281 7.515625 -0.53125 C 7.785156 -0.445312 8.15625 -0.40625 8.625 -0.40625 L 8.625 0 L 2.828125 0 L 2.828125 -0.40625 C 3.566406 -0.40625 4.078125 -0.53125 4.359375 -0.78125 C 4.640625 -1.03125 4.78125 -1.488281 4.78125 -2.15625 L 4.78125 -12.453125 C 4.78125 -13.523438 4.5 -14.0625 3.9375 -14.0625 C 3.664062 -14.0625 3.296875 -13.941406 2.828125 -13.703125 L 2.609375 -14.0625 L 6.265625 -15.890625 Z M 6.703125 -15.890625 "/></g></g></g><g clip-path="url(#9ae59ac2a5)"><path fill="#000000" d="M 82.210938 86.191406 L 82.210938 777.691406 M 197.875 86.191406 L 197.875 777.691406 M 313.542969 86.191406 L 313.542969 777.691406 M 429.207031 86.191406 L 429.207031 777.691406 M 544.875 86.191406 L 544.875 777.691406 M 660.539062 86.191406 L 660.539062 777.691406 M 776.207031 86.191406 L 776.207031 777.691406 M 80.421875 84.402344 L 777.992188 84.402344 M 80.421875 200.25 L 777.992188 200.25 M 80.421875 316.09375 L 777.992188 316.09375 M 80.421875 431.941406 L 777.992188 431.941406 M 80.421875 547.785156 L 777.992188 547.785156 M 80.421875 663.632812 L 777.992188 663.632812 M 80.421875 779.476562 L 777.992188 779.476562 " fill-opacity="1" fill-rule="nonzero"/></g><g clip-path="url(#7f5c22b223)"><path stroke-linecap="butt" transform="matrix(0.75, 0, 0, 0.75, 80.422535, 82.615957)" fill="none" stroke-linejoin="miter" d="M 2.384536 4.767265 L 2.384536 926.767312 M 156.603294 4.767265 L 156.603294 926.767312 M 310.82726 4.767265 L 310.82726 926.767312 M 465.046018 4.767265 L 465.046018 926.767312 M 619.269984 4.767265 L 619.269984 926.767312 M 773.488742 4.767265 L 773.488742 926.767312 M 927.712708 4.767265 L 927.712708 926.767312 M -0.000880605 2.381849 L 930.092916 2.381849 M -0.000880605 156.845398 L 930.092916 156.845398 M -0.000880605 311.303739 L 930.092916 311.303739 M -0.000880605 465.767289 L 930.092916 465.767289 M -0.000880605 620.22563 L 930.092916 620.22563 M -0.000880605 774.689179 L 930.092916 774.689179 M -0.000880605 929.14752 L 930.092916 929.14752 " stroke="#000000" stroke-width="4.766886" stroke-opacity="1" stroke-miterlimit="4"/></g><g fill="#000000" fill-opacity="1"><g transform="translate(20.668594, 150.84398)"><g><path d="M 13.3125 -37.609375 C 15.175781 -37.609375 17.023438 -36.90625 18.859375 -35.5 C 20.691406 -34.101562 22.207031 -31.957031 23.40625 -29.0625 C 24.613281 -26.175781 25.21875 -22.648438 25.21875 -18.484375 C 25.21875 -14.242188 24.597656 -10.6875 23.359375 -7.8125 C 22.117188 -4.9375 20.597656 -2.804688 18.796875 -1.421875 C 17.003906 -0.046875 15.265625 0.640625 13.578125 0.640625 C 11.597656 0.640625 9.703125 -0.0820312 7.890625 -1.53125 C 6.078125 -2.988281 4.59375 -5.15625 3.4375 -8.03125 C 2.289062 -10.90625 1.71875 -14.390625 1.71875 -18.484375 C 1.71875 -22.691406 2.3125 -26.226562 3.5 -29.09375 C 4.6875 -31.96875 6.175781 -34.101562 7.96875 -35.5 C 9.769531 -36.90625 11.550781 -37.609375 13.3125 -37.609375 Z M 6.890625 -18.484375 C 6.890625 -13.203125 7.363281 -8.960938 8.3125 -5.765625 C 9.269531 -2.566406 10.972656 -0.96875 13.421875 -0.96875 C 15.753906 -0.96875 17.429688 -2.484375 18.453125 -5.515625 C 19.484375 -8.554688 20 -12.878906 20 -18.484375 C 20 -24.453125 19.445312 -28.863281 18.34375 -31.71875 C 17.25 -34.570312 15.585938 -36 13.359375 -36 C 10.878906 -36 9.179688 -34.363281 8.265625 -31.09375 C 7.347656 -27.820312 6.890625 -23.617188 6.890625 -18.484375 Z M 6.890625 -18.484375 "/></g></g></g><g fill="#000000" fill-opacity="1"><g transform="translate(26.834643, 448.675817)"><g><path d="M 7.328125 -38.796875 C 8.117188 -38.796875 8.78125 -38.523438 9.3125 -37.984375 C 9.851562 -37.453125 10.125 -36.804688 10.125 -36.046875 C 10.125 -35.265625 9.851562 -34.601562 9.3125 -34.0625 C 8.78125 -33.519531 8.117188 -33.25 7.328125 -33.25 C 6.578125 -33.25 5.929688 -33.519531 5.390625 -34.0625 C 4.847656 -34.601562 4.578125 -35.265625 4.578125 -36.046875 C 4.578125 -36.804688 4.847656 -37.453125 5.390625 -37.984375 C 5.929688 -38.523438 6.578125 -38.796875 7.328125 -38.796875 Z M 9.703125 -5.609375 C 9.703125 -3.847656 9.988281 -2.644531 10.5625 -2 C 11.132812 -1.351562 12.066406 -1.007812 13.359375 -0.96875 L 13.359375 0 L 1.234375 0 L 1.234375 -0.96875 C 2.710938 -0.96875 3.753906 -1.304688 4.359375 -1.984375 C 4.972656 -2.671875 5.28125 -3.914062 5.28125 -5.71875 L 5.28125 -18.75 C 5.28125 -19.71875 5.0625 -20.507812 4.625 -21.125 C 4.195312 -21.738281 3.535156 -22.046875 2.640625 -22.046875 C 2.242188 -22.046875 1.882812 -21.953125 1.5625 -21.765625 L 1.234375 -22.734375 L 8.734375 -25.59375 L 9.703125 -25.59375 Z M 9.703125 -5.609375 "/></g></g></g><g fill="#000000" fill-opacity="1"><g transform="translate(19.95393, 743.316598)"><g><path d="M 20.25 0 L 20.25 -16.640625 C 20.25 -18.679688 19.835938 -20.210938 19.015625 -21.234375 C 18.191406 -22.253906 16.898438 -22.765625 15.140625 -22.765625 C 13.867188 -22.765625 12.800781 -22.5625 11.9375 -22.15625 C 11.070312 -21.75 10.375 -21.144531 9.84375 -20.34375 C 9.320312 -19.539062 8.945312 -18.554688 8.71875 -17.390625 C 8.488281 -16.234375 8.375 -14.898438 8.375 -13.390625 L 8.375 0 L 4.09375 0 L 4.09375 -25.859375 L 7.578125 -25.859375 L 8.1875 -22.359375 L 8.421875 -22.359375 C 8.816406 -23.035156 9.285156 -23.617188 9.828125 -24.109375 C 10.367188 -24.609375 10.960938 -25.023438 11.609375 -25.359375 C 12.253906 -25.691406 12.9375 -25.9375 13.65625 -26.09375 C 14.375 -26.25 15.113281 -26.328125 15.875 -26.328125 C 18.738281 -26.328125 20.894531 -25.578125 22.34375 -24.078125 C 23.800781 -22.578125 24.53125 -20.175781 24.53125 -16.875 L 24.53125 0 Z M 20.25 0 "/></g></g></g><path stroke-linecap="butt" transform="matrix(0, -0.75, 0.75, 0, 30.149374, 342.542463)" fill="none" stroke-linejoin="miter" d="M -0.000674644 2.498752 L 150.671208 2.498752 " stroke="#000000" stroke-width="5" stroke-opacity="1" stroke-miterlimit="4"/><path stroke-linecap="round" transform="matrix(0, -0.75, 0.75, 0, 30.149374, 342.542463)" fill="none" stroke-linejoin="round" d="M 140.671207 -5.001249 L 150.671208 2.498752 L 140.671207 9.998752 " stroke="#000000" stroke-width="5" stroke-opacity="1" stroke-miterlimit="4"/><path stroke-linecap="butt" transform="matrix(0.000000001309, 0.75, -0.75, 0.000000001309, 38.154113, 522.304386)" fill="none" stroke-linejoin="miter" d="M 0.000402364 2.502359 L 150.672285 2.502359 " stroke="#000000" stroke-width="5" stroke-opacity="1" stroke-miterlimit="4"/><path stroke-linecap="round" transform="matrix(0.000000001309, 0.75, -0.75, 0.000000001309, 38.154113, 522.304386)" fill="none" stroke-linejoin="round" d="M 140.672284 -4.997641 L 150.672285 2.502359 L 140.672284 10.00236 " stroke="#000000" stroke-width="5" stroke-opacity="1" stroke-miterlimit="4"/><g fill="#000000" fill-opacity="1"><g transform="translate(116.819187, 53.149685)"><g><path d="M 13.3125 -37.609375 C 15.175781 -37.609375 17.023438 -36.90625 18.859375 -35.5 C 20.691406 -34.101562 22.207031 -31.957031 23.40625 -29.0625 C 24.613281 -26.175781 25.21875 -22.648438 25.21875 -18.484375 C 25.21875 -14.242188 24.597656 -10.6875 23.359375 -7.8125 C 22.117188 -4.9375 20.597656 -2.804688 18.796875 -1.421875 C 17.003906 -0.046875 15.265625 0.640625 13.578125 0.640625 C 11.597656 0.640625 9.703125 -0.0820312 7.890625 -1.53125 C 6.078125 -2.988281 4.59375 -5.15625 3.4375 -8.03125 C 2.289062 -10.90625 1.71875 -14.390625 1.71875 -18.484375 C 1.71875 -22.691406 2.3125 -26.226562 3.5 -29.09375 C 4.6875 -31.96875 6.175781 -34.101562 7.96875 -35.5 C 9.769531 -36.90625 11.550781 -37.609375 13.3125 -37.609375 Z M 6.890625 -18.484375 C 6.890625 -13.203125 7.363281 -8.960938 8.3125 -5.765625 C 9.269531 -2.566406 10.972656 -0.96875 13.421875 -0.96875 C 15.753906 -0.96875 17.429688 -2.484375 18.453125 -5.515625 C 19.484375 -8.554688 20 -12.878906 20 -18.484375 C 20 -24.453125 19.445312 -28.863281 18.34375 -31.71875 C 17.25 -34.570312 15.585938 -36 13.359375 -36 C 10.878906 -36 9.179688 -34.363281 8.265625 -31.09375 C 7.347656 -27.820312 6.890625 -23.617188 6.890625 -18.484375 Z M 6.890625 -18.484375 "/></g></g></g><g fill="#000000" fill-opacity="1"><g transform="translate(143.776957, 53.149685)"><g/></g></g><g fill="#000000" fill-opacity="1"><g transform="translate(157.247548, 53.149685)"><g/></g></g><g fill="#000000" fill-opacity="1"><g transform="translate(170.718139, 53.149685)"><g/></g></g><g fill="#000000" fill-opacity="1"><g transform="translate(184.18873, 53.149685)"><g/></g></g><g fill="#000000" fill-opacity="1"><g transform="translate(197.659322, 53.149685)"><g/></g></g><g fill="#000000" fill-opacity="1"><g transform="translate(211.129913, 53.149685)"><g/></g></g><g fill="#000000" fill-opacity="1"><g transform="translate(224.600504, 53.149685)"><g/></g></g><g fill="#000000" fill-opacity="1"><g transform="translate(238.071095, 53.149685)"><g/></g></g><g fill="#000000" fill-opacity="1"><g transform="translate(251.541687, 53.149685)"><g/></g></g><g fill="#000000" fill-opacity="1"><g transform="translate(265.012278, 53.149685)"><g/></g></g><g fill="#000000" fill-opacity="1"><g transform="translate(278.482869, 53.149685)"><g/></g></g><g fill="#000000" fill-opacity="1"><g transform="translate(291.95346, 53.149685)"><g/></g></g><g fill="#000000" fill-opacity="1"><g transform="translate(305.424051, 53.149685)"><g/></g></g><g fill="#000000" fill-opacity="1"><g transform="translate(318.894643, 53.149685)"><g/></g></g><g fill="#000000" fill-opacity="1"><g transform="translate(332.365234, 53.149685)"><g/></g></g><g fill="#000000" fill-opacity="1"><g transform="translate(345.835825, 53.149685)"><g/></g></g><g fill="#000000" fill-opacity="1"><g transform="translate(359.306416, 53.149685)"><g/></g></g><g fill="#000000" fill-opacity="1"><g transform="translate(372.777008, 53.149685)"><g/></g></g><g fill="#000000" fill-opacity="1"><g transform="translate(386.247599, 53.149685)"><g/></g></g><g fill="#000000" fill-opacity="1"><g transform="translate(399.726196, 53.149685)"><g><path d="M 7.921875 -38.796875 C 8.710938 -38.796875 9.375 -38.523438 9.90625 -37.984375 C 10.445312 -37.453125 10.71875 -36.804688 10.71875 -36.046875 C 10.71875 -35.265625 10.445312 -34.601562 9.90625 -34.0625 C 9.375 -33.519531 8.710938 -33.25 7.921875 -33.25 C 7.171875 -33.25 6.523438 -33.519531 5.984375 -34.0625 C 5.441406 -34.601562 5.171875 -35.265625 5.171875 -36.046875 C 5.171875 -36.804688 5.441406 -37.453125 5.984375 -37.984375 C 6.523438 -38.523438 7.171875 -38.796875 7.921875 -38.796875 Z M 10.40625 -0.96875 C 10.40625 2.726562 9.628906 5.71875 8.078125 8 C 6.535156 10.28125 4.128906 11.421875 0.859375 11.421875 C -0.535156 11.421875 -1.679688 11.171875 -2.578125 10.671875 C -3.484375 10.171875 -3.9375 9.523438 -3.9375 8.734375 C -3.9375 8.117188 -3.710938 7.585938 -3.265625 7.140625 C -2.816406 6.691406 -2.285156 6.46875 -1.671875 6.46875 C -1.097656 6.46875 -0.585938 6.601562 -0.140625 6.875 C 0.304688 7.144531 0.820312 7.53125 1.40625 8.03125 C 1.800781 8.425781 2.160156 8.726562 2.484375 8.9375 C 2.804688 9.15625 3.144531 9.265625 3.5 9.265625 C 4.4375 9.265625 5.082031 8.796875 5.4375 7.859375 C 5.800781 6.929688 5.984375 5.859375 5.984375 4.640625 L 5.984375 -18.375 C 5.984375 -19.632812 5.765625 -20.585938 5.328125 -21.234375 C 4.898438 -21.878906 4.273438 -22.203125 3.453125 -22.203125 C 2.878906 -22.203125 2.359375 -22.09375 1.890625 -21.875 L 1.5625 -22.84375 L 9.484375 -25.59375 L 10.40625 -25.59375 Z M 10.40625 -0.96875 "/></g></g></g><g fill="#000000" fill-opacity="1"><g transform="translate(414.335242, 53.149685)"><g/></g></g><g fill="#000000" fill-opacity="1"><g transform="translate(427.805833, 53.149685)"><g/></g></g><g fill="#000000" fill-opacity="1"><g transform="translate(441.276424, 53.149685)"><g/></g></g><g fill="#000000" fill-opacity="1"><g transform="translate(454.747015, 53.149685)"><g/></g></g><g fill="#000000" fill-opacity="1"><g transform="translate(468.217607, 53.149685)"><g/></g></g><g fill="#000000" fill-opacity="1"><g transform="translate(481.688198, 53.149685)"><g/></g></g><g fill="#000000" fill-opacity="1"><g transform="translate(495.158789, 53.149685)"><g/></g></g><g fill="#000000" fill-opacity="1"><g transform="translate(508.62938, 53.149685)"><g/></g></g><g fill="#000000" fill-opacity="1"><g transform="translate(522.099971, 53.149685)"><g/></g></g><g fill="#000000" fill-opacity="1"><g transform="translate(535.570563, 53.149685)"><g/></g></g><g fill="#000000" fill-opacity="1"><g transform="translate(549.041154, 53.149685)"><g/></g></g><g fill="#000000" fill-opacity="1"><g transform="translate(562.511745, 53.149685)"><g/></g></g><g fill="#000000" fill-opacity="1"><g transform="translate(575.982336, 53.149685)"><g/></g></g><g fill="#000000" fill-opacity="1"><g transform="translate(589.452928, 53.149685)"><g/></g></g><g fill="#000000" fill-opacity="1"><g transform="translate(602.923519, 53.149685)"><g/></g></g><g fill="#000000" fill-opacity="1"><g transform="translate(616.39411, 53.149685)"><g/></g></g><g fill="#000000" fill-opacity="1"><g transform="translate(629.864701, 53.149685)"><g/></g></g><g fill="#000000" fill-opacity="1"><g transform="translate(643.335293, 53.149685)"><g/></g></g><g fill="#000000" fill-opacity="1"><g transform="translate(656.805884, 53.149685)"><g/></g></g><g fill="#000000" fill-opacity="1"><g transform="translate(670.276475, 53.149685)"><g/></g></g><g fill="#000000" fill-opacity="1"><g transform="translate(683.747066, 53.149685)"><g/></g></g><g fill="#000000" fill-opacity="1"><g transform="translate(697.225631, 53.149685)"><g><path d="M 9.4375 -25.59375 L 9.4375 -20.484375 C 12.519531 -23.890625 15.320312 -25.59375 17.84375 -25.59375 C 19.488281 -25.59375 20.84375 -25.132812 21.90625 -24.21875 C 22.96875 -23.300781 23.695312 -21.945312 24.09375 -20.15625 C 26.820312 -23.78125 29.800781 -25.59375 33.03125 -25.59375 C 35.363281 -25.59375 37.039062 -24.757812 38.0625 -23.09375 C 39.09375 -21.425781 39.609375 -19.492188 39.609375 -17.296875 L 39.609375 -5.71875 C 39.609375 -4.351562 39.742188 -3.335938 40.015625 -2.671875 C 40.285156 -2.003906 40.707031 -1.550781 41.28125 -1.3125 C 41.851562 -1.082031 42.660156 -0.96875 43.703125 -0.96875 L 43.703125 0 L 30.984375 0 L 30.984375 -0.96875 C 32.097656 -0.96875 32.941406 -1.070312 33.515625 -1.28125 C 34.085938 -1.5 34.507812 -1.953125 34.78125 -2.640625 C 35.050781 -3.328125 35.1875 -4.382812 35.1875 -5.8125 L 35.1875 -17.78125 C 35.1875 -19.039062 34.816406 -20.117188 34.078125 -21.015625 C 33.347656 -21.910156 32.28125 -22.359375 30.875 -22.359375 C 29.726562 -22.359375 28.550781 -22.050781 27.34375 -21.4375 C 26.144531 -20.832031 25.148438 -20.023438 24.359375 -19.015625 L 24.515625 -15.84375 L 24.515625 -5.71875 C 24.515625 -4.351562 24.65625 -3.335938 24.9375 -2.671875 C 25.226562 -2.003906 25.648438 -1.550781 26.203125 -1.3125 C 26.765625 -1.082031 27.566406 -0.96875 28.609375 -0.96875 L 28.609375 0 L 15.84375 0 L 15.84375 -0.96875 C 16.957031 -0.96875 17.8125 -1.070312 18.40625 -1.28125 C 19 -1.5 19.425781 -1.941406 19.6875 -2.609375 C 19.957031 -3.273438 20.09375 -4.3125 20.09375 -5.71875 L 20.09375 -17.359375 C 20.09375 -18.609375 19.734375 -19.753906 19.015625 -20.796875 C 18.304688 -21.835938 17.234375 -22.359375 15.796875 -22.359375 C 14.859375 -22.359375 13.832031 -22.085938 12.71875 -21.546875 C 11.601562 -21.015625 10.507812 -20.191406 9.4375 -19.078125 L 9.4375 -5.71875 C 9.4375 -3.882812 9.722656 -2.632812 10.296875 -1.96875 C 10.867188 -1.300781 11.800781 -0.96875 13.09375 -0.96875 L 13.421875 -0.96875 L 13.421875 0 L 0.8125 0 L 0.8125 -0.96875 C 1.925781 -0.96875 2.769531 -1.070312 3.34375 -1.28125 C 3.914062 -1.5 4.335938 -1.953125 4.609375 -2.640625 C 4.878906 -3.328125 5.015625 -4.351562 5.015625 -5.71875 L 5.015625 -18.484375 C 5.015625 -19.523438 4.796875 -20.382812 4.359375 -21.0625 C 3.929688 -21.75 3.25 -22.09375 2.3125 -22.09375 C 1.78125 -22.09375 1.28125 -22.003906 0.8125 -21.828125 L 0.4375 -22.734375 L 8.515625 -25.59375 Z M 9.4375 -25.59375 "/></g></g></g><path stroke-linecap="butt" transform="matrix(-0.75, 0, 0, -0.75, 337.300621, 42.260468)" fill="none" stroke-linejoin="miter" d="M -0.000213759 2.498333 L 145.567502 2.498333 " stroke="#000000" stroke-width="5" stroke-opacity="1" stroke-miterlimit="4"/><path stroke-linecap="round" transform="matrix(-0.75, 0, 0, -0.75, 337.300621, 42.260468)" fill="none" stroke-linejoin="round" d="M 135.567501 -5.001668 L 145.567502 2.498333 L 135.567501 9.998333 " stroke="#000000" stroke-width="5" stroke-opacity="1" stroke-miterlimit="4"/><path stroke-linecap="butt" transform="matrix(0.75, 0, 0, 0.75, 504.939242, 40.637838)" fill="none" stroke-linejoin="miter" d="M -0.0023228 2.498508 L 145.565393 2.498508 " stroke="#000000" stroke-width="5" stroke-opacity="1" stroke-miterlimit="4"/><path stroke-linecap="round" transform="matrix(0.75, 0, 0, 0.75, 504.939242, 40.637838)" fill="none" stroke-linejoin="round" d="M 135.565392 -5.001493 L 145.565393 2.498508 L 135.565392 9.998508 " stroke="#000000" stroke-width="5" stroke-opacity="1" stroke-miterlimit="4"/><path stroke-linecap="butt" transform="matrix(-0.74941, -0.0297385, 0.0297385, -0.74941, 455.934893, 389.091212)" fill="none" stroke-linejoin="miter" d="M 0.00184402 2.498507 L 69.035396 2.50082 " stroke="#000000" stroke-width="5" stroke-opacity="1" stroke-miterlimit="4"/><path stroke-linecap="round" transform="matrix(-0.74941, -0.0297385, 0.0297385, -0.74941, 455.934893, 389.091212)" fill="none" stroke-linejoin="round" d="M 59.037436 -4.999271 L 69.035396 2.50082 L 59.03851 10.002068 " stroke="#000000" stroke-width="5" stroke-opacity="1" stroke-miterlimit="4"/><path stroke-linecap="butt" transform="matrix(-0.613658, -0.431189, 0.431189, -0.613658, 446.443421, 448.896381)" fill="none" stroke-linejoin="miter" d="M 0.00123202 2.497433 L 69.037427 2.500473 " stroke="#000000" stroke-width="5" stroke-opacity="1" stroke-miterlimit="4"/><path stroke-linecap="round" transform="matrix(-0.613658, -0.431189, 0.431189, -0.613658, 446.443421, 448.896381)" fill="none" stroke-linejoin="round" d="M 59.03797 -4.999481 L 69.037427 2.500473 L 59.035642 9.999319 " stroke="#000000" stroke-width="5" stroke-opacity="1" stroke-miterlimit="4"/></svg>