<svg xmlns="http://www.w3.org/2000/svg" xmlns:xlink="http://www.w3.org/1999/xlink" width="400" zoomAndPan="magnify" viewBox="0 0 300 149.999998" height="200" preserveAspectRatio="xMidYMid meet" version="1.0"><defs><g/><clipPath id="281f692da7"><path d="M 102.855469 13.265625 L 296 13.265625 L 296 49 L 102.855469 49 Z M 102.855469 13.265625 " clip-rule="nonzero"/></clipPath><clipPath id="4bf642f124"><path d="M 102.855469 13.265625 L 296.355469 13.265625 L 296.355469 49 L 102.855469 49 Z M 102.855469 13.265625 " clip-rule="nonzero"/></clipPath><clipPath id="6255a53eec"><path d="M 6.445312 98.011719 L 199.945312 98.011719 L 199.945312 134 L 6.445312 134 Z M 6.445312 98.011719 " clip-rule="nonzero"/></clipPath></defs><g fill="#000000" fill-opacity="1"><g transform="translate(115.333401, 35.471408)"><g><path d="M 4.78125 0 L 3.59375 0 L 3.59375 -6.125 C 3.59375 -6.320312 3.59375 -6.53125 3.59375 -6.75 C 3.59375 -6.96875 3.597656 -7.1875 3.609375 -7.40625 C 3.617188 -7.625 3.625 -7.832031 3.625 -8.03125 C 3.632812 -8.226562 3.640625 -8.398438 3.640625 -8.546875 C 3.566406 -8.472656 3.5 -8.40625 3.4375 -8.34375 C 3.382812 -8.289062 3.328125 -8.234375 3.265625 -8.171875 C 3.203125 -8.117188 3.132812 -8.0625 3.0625 -8 C 3 -7.945312 2.921875 -7.878906 2.828125 -7.796875 L 1.84375 -6.984375 L 1.1875 -7.8125 L 3.765625 -9.8125 L 4.78125 -9.8125 Z M 4.78125 0 "/></g></g></g><g fill="#000000" fill-opacity="1"><g transform="translate(147.285451, 35.471408)"><g><path d="M 6.765625 0 L 0.640625 0 L 0.640625 -1.046875 L 3 -3.609375 C 3.332031 -3.972656 3.628906 -4.300781 3.890625 -4.59375 C 4.160156 -4.894531 4.382812 -5.1875 4.5625 -5.46875 C 4.75 -5.757812 4.890625 -6.050781 4.984375 -6.34375 C 5.085938 -6.632812 5.140625 -6.945312 5.140625 -7.28125 C 5.140625 -7.550781 5.101562 -7.785156 5.03125 -7.984375 C 4.957031 -8.179688 4.847656 -8.347656 4.703125 -8.484375 C 4.554688 -8.628906 4.390625 -8.738281 4.203125 -8.8125 C 4.015625 -8.882812 3.800781 -8.921875 3.5625 -8.921875 C 3.132812 -8.921875 2.75 -8.832031 2.40625 -8.65625 C 2.0625 -8.488281 1.738281 -8.269531 1.4375 -8 L 0.75 -8.796875 C 0.925781 -8.960938 1.113281 -9.113281 1.3125 -9.25 C 1.519531 -9.394531 1.742188 -9.519531 1.984375 -9.625 C 2.222656 -9.726562 2.472656 -9.804688 2.734375 -9.859375 C 3.003906 -9.921875 3.285156 -9.953125 3.578125 -9.953125 C 4.003906 -9.953125 4.390625 -9.890625 4.734375 -9.765625 C 5.078125 -9.648438 5.367188 -9.476562 5.609375 -9.25 C 5.859375 -9.03125 6.046875 -8.753906 6.171875 -8.421875 C 6.304688 -8.097656 6.375 -7.734375 6.375 -7.328125 C 6.375 -6.953125 6.3125 -6.59375 6.1875 -6.25 C 6.070312 -5.90625 5.910156 -5.566406 5.703125 -5.234375 C 5.492188 -4.898438 5.242188 -4.5625 4.953125 -4.21875 C 4.671875 -3.882812 4.363281 -3.535156 4.03125 -3.171875 L 2.140625 -1.171875 L 2.140625 -1.109375 L 6.765625 -1.109375 Z M 6.765625 0 "/></g></g></g><g fill="#000000" fill-opacity="1"><g transform="translate(179.237513, 35.471408)"><g><path d="M 6.453125 -7.515625 C 6.453125 -7.191406 6.398438 -6.894531 6.296875 -6.625 C 6.191406 -6.351562 6.046875 -6.117188 5.859375 -5.921875 C 5.679688 -5.734375 5.460938 -5.570312 5.203125 -5.4375 C 4.941406 -5.3125 4.648438 -5.222656 4.328125 -5.171875 L 4.328125 -5.125 C 5.117188 -5.03125 5.71875 -4.78125 6.125 -4.375 C 6.539062 -3.96875 6.75 -3.441406 6.75 -2.796875 C 6.75 -2.367188 6.675781 -1.972656 6.53125 -1.609375 C 6.382812 -1.253906 6.164062 -0.945312 5.875 -0.6875 C 5.582031 -0.425781 5.207031 -0.222656 4.75 -0.078125 C 4.300781 0.0664062 3.769531 0.140625 3.15625 0.140625 C 2.664062 0.140625 2.203125 0.0976562 1.765625 0.015625 C 1.335938 -0.0546875 0.929688 -0.191406 0.546875 -0.390625 L 0.546875 -1.53125 C 0.941406 -1.332031 1.363281 -1.175781 1.8125 -1.0625 C 2.269531 -0.945312 2.707031 -0.890625 3.125 -0.890625 C 3.53125 -0.890625 3.882812 -0.929688 4.1875 -1.015625 C 4.488281 -1.109375 4.734375 -1.238281 4.921875 -1.40625 C 5.117188 -1.570312 5.265625 -1.773438 5.359375 -2.015625 C 5.453125 -2.265625 5.5 -2.535156 5.5 -2.828125 C 5.5 -3.140625 5.4375 -3.398438 5.3125 -3.609375 C 5.195312 -3.828125 5.03125 -4.003906 4.8125 -4.140625 C 4.59375 -4.285156 4.320312 -4.390625 4 -4.453125 C 3.6875 -4.523438 3.332031 -4.5625 2.9375 -4.5625 L 2.046875 -4.5625 L 2.046875 -5.578125 L 2.9375 -5.578125 C 3.300781 -5.578125 3.625 -5.617188 3.90625 -5.703125 C 4.1875 -5.796875 4.421875 -5.925781 4.609375 -6.09375 C 4.804688 -6.257812 4.953125 -6.457031 5.046875 -6.6875 C 5.148438 -6.914062 5.203125 -7.164062 5.203125 -7.4375 C 5.203125 -7.664062 5.160156 -7.875 5.078125 -8.0625 C 4.992188 -8.25 4.878906 -8.40625 4.734375 -8.53125 C 4.585938 -8.65625 4.410156 -8.75 4.203125 -8.8125 C 3.992188 -8.882812 3.765625 -8.921875 3.515625 -8.921875 C 3.035156 -8.921875 2.613281 -8.84375 2.25 -8.6875 C 1.882812 -8.539062 1.535156 -8.347656 1.203125 -8.109375 L 0.59375 -8.953125 C 0.757812 -9.085938 0.945312 -9.210938 1.15625 -9.328125 C 1.363281 -9.453125 1.585938 -9.5625 1.828125 -9.65625 C 2.078125 -9.75 2.34375 -9.820312 2.625 -9.875 C 2.90625 -9.925781 3.203125 -9.953125 3.515625 -9.953125 C 4.003906 -9.953125 4.429688 -9.890625 4.796875 -9.765625 C 5.160156 -9.648438 5.460938 -9.484375 5.703125 -9.265625 C 5.953125 -9.046875 6.140625 -8.785156 6.265625 -8.484375 C 6.390625 -8.191406 6.453125 -7.867188 6.453125 -7.515625 Z M 6.453125 -7.515625 "/></g></g></g><g fill="#000000" fill-opacity="1"><g transform="translate(211.189563, 35.471408)"><g><path d="M 7.296875 -2.203125 L 5.875 -2.203125 L 5.875 0 L 4.6875 0 L 4.6875 -2.203125 L 0.15625 -2.203125 L 0.15625 -3.265625 L 4.609375 -9.875 L 5.875 -9.875 L 5.875 -3.3125 L 7.296875 -3.3125 Z M 4.6875 -3.3125 L 4.6875 -5.703125 C 4.6875 -5.953125 4.6875 -6.210938 4.6875 -6.484375 C 4.695312 -6.765625 4.707031 -7.035156 4.71875 -7.296875 C 4.726562 -7.554688 4.738281 -7.800781 4.75 -8.03125 C 4.757812 -8.257812 4.769531 -8.453125 4.78125 -8.609375 L 4.71875 -8.609375 C 4.6875 -8.515625 4.644531 -8.410156 4.59375 -8.296875 C 4.550781 -8.191406 4.5 -8.082031 4.4375 -7.96875 C 4.382812 -7.863281 4.328125 -7.757812 4.265625 -7.65625 C 4.210938 -7.550781 4.160156 -7.46875 4.109375 -7.40625 L 1.34375 -3.3125 Z M 4.6875 -3.3125 "/></g></g></g><g fill="#000000" fill-opacity="1"><g transform="translate(243.141611, 35.471408)"><g><path d="M 3.65625 -6.015625 C 4.101562 -6.015625 4.515625 -5.953125 4.890625 -5.828125 C 5.273438 -5.710938 5.609375 -5.53125 5.890625 -5.28125 C 6.179688 -5.039062 6.40625 -4.742188 6.5625 -4.390625 C 6.726562 -4.035156 6.8125 -3.625 6.8125 -3.15625 C 6.8125 -2.644531 6.734375 -2.179688 6.578125 -1.765625 C 6.421875 -1.359375 6.191406 -1.015625 5.890625 -0.734375 C 5.597656 -0.453125 5.226562 -0.234375 4.78125 -0.078125 C 4.34375 0.0664062 3.835938 0.140625 3.265625 0.140625 C 3.035156 0.140625 2.8125 0.125 2.59375 0.09375 C 2.375 0.0703125 2.160156 0.0390625 1.953125 0 C 1.753906 -0.0390625 1.5625 -0.09375 1.375 -0.15625 C 1.1875 -0.226562 1.019531 -0.304688 0.875 -0.390625 L 0.875 -1.546875 C 1.019531 -1.441406 1.191406 -1.347656 1.390625 -1.265625 C 1.597656 -1.191406 1.8125 -1.128906 2.03125 -1.078125 C 2.25 -1.023438 2.46875 -0.984375 2.6875 -0.953125 C 2.90625 -0.921875 3.109375 -0.90625 3.296875 -0.90625 C 3.648438 -0.90625 3.96875 -0.945312 4.25 -1.03125 C 4.53125 -1.113281 4.765625 -1.238281 4.953125 -1.40625 C 5.148438 -1.582031 5.296875 -1.800781 5.390625 -2.0625 C 5.492188 -2.332031 5.546875 -2.648438 5.546875 -3.015625 C 5.546875 -3.648438 5.347656 -4.132812 4.953125 -4.46875 C 4.566406 -4.8125 4 -4.984375 3.25 -4.984375 C 3.125 -4.984375 2.988281 -4.976562 2.84375 -4.96875 C 2.707031 -4.957031 2.566406 -4.941406 2.421875 -4.921875 C 2.285156 -4.910156 2.148438 -4.894531 2.015625 -4.875 C 1.890625 -4.851562 1.78125 -4.832031 1.6875 -4.8125 L 1.09375 -5.203125 L 1.453125 -9.8125 L 6.09375 -9.8125 L 6.09375 -8.703125 L 2.515625 -8.703125 L 2.25 -5.890625 C 2.394531 -5.910156 2.582031 -5.9375 2.8125 -5.96875 C 3.050781 -6 3.332031 -6.015625 3.65625 -6.015625 Z M 3.65625 -6.015625 "/></g></g></g><g fill="#000000" fill-opacity="1"><g transform="translate(275.093661, 35.471408)"><g><path d="M 0.765625 -4.203125 C 0.765625 -4.671875 0.785156 -5.132812 0.828125 -5.59375 C 0.878906 -6.0625 0.960938 -6.507812 1.078125 -6.9375 C 1.191406 -7.363281 1.351562 -7.757812 1.5625 -8.125 C 1.769531 -8.5 2.03125 -8.820312 2.34375 -9.09375 C 2.664062 -9.363281 3.046875 -9.570312 3.484375 -9.71875 C 3.929688 -9.875 4.453125 -9.953125 5.046875 -9.953125 C 5.128906 -9.953125 5.222656 -9.945312 5.328125 -9.9375 C 5.429688 -9.9375 5.535156 -9.929688 5.640625 -9.921875 C 5.742188 -9.910156 5.84375 -9.894531 5.9375 -9.875 C 6.039062 -9.863281 6.128906 -9.847656 6.203125 -9.828125 L 6.203125 -8.78125 C 6.046875 -8.84375 5.867188 -8.882812 5.671875 -8.90625 C 5.472656 -8.9375 5.28125 -8.953125 5.09375 -8.953125 C 4.6875 -8.953125 4.328125 -8.898438 4.015625 -8.796875 C 3.710938 -8.703125 3.445312 -8.566406 3.21875 -8.390625 C 3 -8.222656 2.8125 -8.015625 2.65625 -7.765625 C 2.507812 -7.523438 2.390625 -7.257812 2.296875 -6.96875 C 2.203125 -6.675781 2.132812 -6.363281 2.09375 -6.03125 C 2.050781 -5.695312 2.019531 -5.351562 2 -5 L 2.09375 -5 C 2.175781 -5.164062 2.28125 -5.316406 2.40625 -5.453125 C 2.539062 -5.597656 2.691406 -5.71875 2.859375 -5.8125 C 3.023438 -5.914062 3.210938 -5.992188 3.421875 -6.046875 C 3.640625 -6.109375 3.882812 -6.140625 4.15625 -6.140625 C 4.570312 -6.140625 4.953125 -6.070312 5.296875 -5.9375 C 5.648438 -5.8125 5.945312 -5.617188 6.1875 -5.359375 C 6.425781 -5.109375 6.609375 -4.796875 6.734375 -4.421875 C 6.867188 -4.054688 6.9375 -3.632812 6.9375 -3.15625 C 6.9375 -2.644531 6.867188 -2.1875 6.734375 -1.78125 C 6.597656 -1.375 6.398438 -1.03125 6.140625 -0.75 C 5.878906 -0.46875 5.5625 -0.25 5.1875 -0.09375 C 4.820312 0.0625 4.414062 0.140625 3.96875 0.140625 C 3.519531 0.140625 3.097656 0.0507812 2.703125 -0.125 C 2.304688 -0.300781 1.960938 -0.566406 1.671875 -0.921875 C 1.390625 -1.285156 1.164062 -1.738281 1 -2.28125 C 0.84375 -2.820312 0.765625 -3.460938 0.765625 -4.203125 Z M 3.953125 -0.890625 C 4.210938 -0.890625 4.453125 -0.9375 4.671875 -1.03125 C 4.898438 -1.125 5.09375 -1.257812 5.25 -1.4375 C 5.414062 -1.625 5.539062 -1.859375 5.625 -2.140625 C 5.71875 -2.429688 5.765625 -2.769531 5.765625 -3.15625 C 5.765625 -3.46875 5.722656 -3.75 5.640625 -4 C 5.566406 -4.25 5.457031 -4.460938 5.3125 -4.640625 C 5.164062 -4.816406 4.984375 -4.953125 4.765625 -5.046875 C 4.546875 -5.140625 4.285156 -5.1875 3.984375 -5.1875 C 3.679688 -5.1875 3.40625 -5.132812 3.15625 -5.03125 C 2.914062 -4.925781 2.707031 -4.785156 2.53125 -4.609375 C 2.351562 -4.441406 2.21875 -4.25 2.125 -4.03125 C 2.03125 -3.820312 1.984375 -3.609375 1.984375 -3.390625 C 1.984375 -3.097656 2.023438 -2.800781 2.109375 -2.5 C 2.191406 -2.195312 2.3125 -1.925781 2.46875 -1.6875 C 2.632812 -1.457031 2.835938 -1.265625 3.078125 -1.109375 C 3.328125 -0.960938 3.617188 -0.890625 3.953125 -0.890625 Z M 3.953125 -0.890625 "/></g></g></g><g clip-path="url(#281f692da7)"><path fill="#000000" d="M 103.40625 14.371094 L 103.40625 47.886719 M 135.359375 14.371094 L 135.359375 47.886719 M 167.3125 14.371094 L 167.3125 47.886719 M 199.261719 14.371094 L 199.261719 47.886719 M 231.214844 14.371094 L 231.214844 47.886719 M 263.167969 14.371094 L 263.167969 47.886719 M 295.117188 14.371094 L 295.117188 47.886719 M 102.855469 13.820312 L 295.671875 13.820312 M 102.855469 48.4375 L 295.671875 48.4375 " fill-opacity="1" fill-rule="nonzero"/></g><g clip-path="url(#4bf642f124)"><path stroke-linecap="butt" transform="matrix(0.75, 0, 0, 0.75, 102.85414, 13.267485)" fill="none" stroke-linejoin="miter" d="M 0.736147 1.471479 L 0.736147 46.158981 M 43.340316 1.471479 L 43.340316 46.158981 M 85.944485 1.471479 L 85.944485 46.158981 M 128.543446 1.471479 L 128.543446 46.158981 M 171.147615 1.471479 L 171.147615 46.158981 M 213.751785 1.471479 L 213.751785 46.158981 M 256.350745 1.471479 L 256.350745 46.158981 M 0.00177207 0.737104 L 257.090329 0.737104 M 0.00177207 46.893357 L 257.090329 46.893357 " stroke="#000000" stroke-width="1.473084" stroke-opacity="1" stroke-miterlimit="4"/></g><g fill="#000000" fill-opacity="1"><g transform="translate(18.924831, 120.214155)"><g><path d="M 0.765625 -4.203125 C 0.765625 -4.671875 0.785156 -5.132812 0.828125 -5.59375 C 0.878906 -6.0625 0.960938 -6.507812 1.078125 -6.9375 C 1.191406 -7.363281 1.351562 -7.757812 1.5625 -8.125 C 1.769531 -8.5 2.03125 -8.820312 2.34375 -9.09375 C 2.664062 -9.363281 3.046875 -9.570312 3.484375 -9.71875 C 3.929688 -9.875 4.453125 -9.953125 5.046875 -9.953125 C 5.128906 -9.953125 5.222656 -9.945312 5.328125 -9.9375 C 5.429688 -9.9375 5.535156 -9.929688 5.640625 -9.921875 C 5.742188 -9.910156 5.84375 -9.894531 5.9375 -9.875 C 6.039062 -9.863281 6.128906 -9.847656 6.203125 -9.828125 L 6.203125 -8.78125 C 6.046875 -8.84375 5.867188 -8.882812 5.671875 -8.90625 C 5.472656 -8.9375 5.28125 -8.953125 5.09375 -8.953125 C 4.6875 -8.953125 4.328125 -8.898438 4.015625 -8.796875 C 3.710938 -8.703125 3.445312 -8.566406 3.21875 -8.390625 C 3 -8.222656 2.8125 -8.015625 2.65625 -7.765625 C 2.507812 -7.523438 2.390625 -7.257812 2.296875 -6.96875 C 2.203125 -6.675781 2.132812 -6.363281 2.09375 -6.03125 C 2.050781 -5.695312 2.019531 -5.351562 2 -5 L 2.09375 -5 C 2.175781 -5.164062 2.28125 -5.316406 2.40625 -5.453125 C 2.539062 -5.597656 2.691406 -5.71875 2.859375 -5.8125 C 3.023438 -5.914062 3.210938 -5.992188 3.421875 -6.046875 C 3.640625 -6.109375 3.882812 -6.140625 4.15625 -6.140625 C 4.570312 -6.140625 4.953125 -6.070312 5.296875 -5.9375 C 5.648438 -5.8125 5.945312 -5.617188 6.1875 -5.359375 C 6.425781 -5.109375 6.609375 -4.796875 6.734375 -4.421875 C 6.867188 -4.054688 6.9375 -3.632812 6.9375 -3.15625 C 6.9375 -2.644531 6.867188 -2.1875 6.734375 -1.78125 C 6.597656 -1.375 6.398438 -1.03125 6.140625 -0.75 C 5.878906 -0.46875 5.5625 -0.25 5.1875 -0.09375 C 4.820312 0.0625 4.414062 0.140625 3.96875 0.140625 C 3.519531 0.140625 3.097656 0.0507812 2.703125 -0.125 C 2.304688 -0.300781 1.960938 -0.566406 1.671875 -0.921875 C 1.390625 -1.285156 1.164062 -1.738281 1 -2.28125 C 0.84375 -2.820312 0.765625 -3.460938 0.765625 -4.203125 Z M 3.953125 -0.890625 C 4.210938 -0.890625 4.453125 -0.9375 4.671875 -1.03125 C 4.898438 -1.125 5.09375 -1.257812 5.25 -1.4375 C 5.414062 -1.625 5.539062 -1.859375 5.625 -2.140625 C 5.71875 -2.429688 5.765625 -2.769531 5.765625 -3.15625 C 5.765625 -3.46875 5.722656 -3.75 5.640625 -4 C 5.566406 -4.25 5.457031 -4.460938 5.3125 -4.640625 C 5.164062 -4.816406 4.984375 -4.953125 4.765625 -5.046875 C 4.546875 -5.140625 4.285156 -5.1875 3.984375 -5.1875 C 3.679688 -5.1875 3.40625 -5.132812 3.15625 -5.03125 C 2.914062 -4.925781 2.707031 -4.785156 2.53125 -4.609375 C 2.351562 -4.441406 2.21875 -4.25 2.125 -4.03125 C 2.03125 -3.820312 1.984375 -3.609375 1.984375 -3.390625 C 1.984375 -3.097656 2.023438 -2.800781 2.109375 -2.5 C 2.191406 -2.195312 2.3125 -1.925781 2.46875 -1.6875 C 2.632812 -1.457031 2.835938 -1.265625 3.078125 -1.109375 C 3.328125 -0.960938 3.617188 -0.890625 3.953125 -0.890625 Z M 3.953125 -0.890625 "/></g></g></g><g fill="#000000" fill-opacity="1"><g transform="translate(50.876885, 120.214155)"><g><path d="M 3.65625 -6.015625 C 4.101562 -6.015625 4.515625 -5.953125 4.890625 -5.828125 C 5.273438 -5.710938 5.609375 -5.53125 5.890625 -5.28125 C 6.179688 -5.039062 6.40625 -4.742188 6.5625 -4.390625 C 6.726562 -4.035156 6.8125 -3.625 6.8125 -3.15625 C 6.8125 -2.644531 6.734375 -2.179688 6.578125 -1.765625 C 6.421875 -1.359375 6.191406 -1.015625 5.890625 -0.734375 C 5.597656 -0.453125 5.226562 -0.234375 4.78125 -0.078125 C 4.34375 0.0664062 3.835938 0.140625 3.265625 0.140625 C 3.035156 0.140625 2.8125 0.125 2.59375 0.09375 C 2.375 0.0703125 2.160156 0.0390625 1.953125 0 C 1.753906 -0.0390625 1.5625 -0.09375 1.375 -0.15625 C 1.1875 -0.226562 1.019531 -0.304688 0.875 -0.390625 L 0.875 -1.546875 C 1.019531 -1.441406 1.191406 -1.347656 1.390625 -1.265625 C 1.597656 -1.191406 1.8125 -1.128906 2.03125 -1.078125 C 2.25 -1.023438 2.46875 -0.984375 2.6875 -0.953125 C 2.90625 -0.921875 3.109375 -0.90625 3.296875 -0.90625 C 3.648438 -0.90625 3.96875 -0.945312 4.25 -1.03125 C 4.53125 -1.113281 4.765625 -1.238281 4.953125 -1.40625 C 5.148438 -1.582031 5.296875 -1.800781 5.390625 -2.0625 C 5.492188 -2.332031 5.546875 -2.648438 5.546875 -3.015625 C 5.546875 -3.648438 5.347656 -4.132812 4.953125 -4.46875 C 4.566406 -4.8125 4 -4.984375 3.25 -4.984375 C 3.125 -4.984375 2.988281 -4.976562 2.84375 -4.96875 C 2.707031 -4.957031 2.566406 -4.941406 2.421875 -4.921875 C 2.285156 -4.910156 2.148438 -4.894531 2.015625 -4.875 C 1.890625 -4.851562 1.78125 -4.832031 1.6875 -4.8125 L 1.09375 -5.203125 L 1.453125 -9.8125 L 6.09375 -9.8125 L 6.09375 -8.703125 L 2.515625 -8.703125 L 2.25 -5.890625 C 2.394531 -5.910156 2.582031 -5.9375 2.8125 -5.96875 C 3.050781 -6 3.332031 -6.015625 3.65625 -6.015625 Z M 3.65625 -6.015625 "/></g></g></g><g fill="#000000" fill-opacity="1"><g transform="translate(82.828945, 120.214155)"><g><path d="M 7.296875 -2.203125 L 5.875 -2.203125 L 5.875 0 L 4.6875 0 L 4.6875 -2.203125 L 0.15625 -2.203125 L 0.15625 -3.265625 L 4.609375 -9.875 L 5.875 -9.875 L 5.875 -3.3125 L 7.296875 -3.3125 Z M 4.6875 -3.3125 L 4.6875 -5.703125 C 4.6875 -5.953125 4.6875 -6.210938 4.6875 -6.484375 C 4.695312 -6.765625 4.707031 -7.035156 4.71875 -7.296875 C 4.726562 -7.554688 4.738281 -7.800781 4.75 -8.03125 C 4.757812 -8.257812 4.769531 -8.453125 4.78125 -8.609375 L 4.71875 -8.609375 C 4.6875 -8.515625 4.644531 -8.410156 4.59375 -8.296875 C 4.550781 -8.191406 4.5 -8.082031 4.4375 -7.96875 C 4.382812 -7.863281 4.328125 -7.757812 4.265625 -7.65625 C 4.210938 -7.550781 4.160156 -7.46875 4.109375 -7.40625 L 1.34375 -3.3125 Z M 4.6875 -3.3125 "/></g></g></g><g fill="#000000" fill-opacity="1"><g transform="translate(114.781002, 120.214155)"><g><path d="M 6.453125 -7.515625 C 6.453125 -7.191406 6.398438 -6.894531 6.296875 -6.625 C 6.191406 -6.351562 6.046875 -6.117188 5.859375 -5.921875 C 5.679688 -5.734375 5.460938 -5.570312 5.203125 -5.4375 C 4.941406 -5.3125 4.648438 -5.222656 4.328125 -5.171875 L 4.328125 -5.125 C 5.117188 -5.03125 5.71875 -4.78125 6.125 -4.375 C 6.539062 -3.96875 6.75 -3.441406 6.75 -2.796875 C 6.75 -2.367188 6.675781 -1.972656 6.53125 -1.609375 C 6.382812 -1.253906 6.164062 -0.945312 5.875 -0.6875 C 5.582031 -0.425781 5.207031 -0.222656 4.75 -0.078125 C 4.300781 0.0664062 3.769531 0.140625 3.15625 0.140625 C 2.664062 0.140625 2.203125 0.0976562 1.765625 0.015625 C 1.335938 -0.0546875 0.929688 -0.191406 0.546875 -0.390625 L 0.546875 -1.53125 C 0.941406 -1.332031 1.363281 -1.175781 1.8125 -1.0625 C 2.269531 -0.945312 2.707031 -0.890625 3.125 -0.890625 C 3.53125 -0.890625 3.882812 -0.929688 4.1875 -1.015625 C 4.488281 -1.109375 4.734375 -1.238281 4.921875 -1.40625 C 5.117188 -1.570312 5.265625 -1.773438 5.359375 -2.015625 C 5.453125 -2.265625 5.5 -2.535156 5.5 -2.828125 C 5.5 -3.140625 5.4375 -3.398438 5.3125 -3.609375 C 5.195312 -3.828125 5.03125 -4.003906 4.8125 -4.140625 C 4.59375 -4.285156 4.320312 -4.390625 4 -4.453125 C 3.6875 -4.523438 3.332031 -4.5625 2.9375 -4.5625 L 2.046875 -4.5625 L 2.046875 -5.578125 L 2.9375 -5.578125 C 3.300781 -5.578125 3.625 -5.617188 3.90625 -5.703125 C 4.1875 -5.796875 4.421875 -5.925781 4.609375 -6.09375 C 4.804688 -6.257812 4.953125 -6.457031 5.046875 -6.6875 C 5.148438 -6.914062 5.203125 -7.164062 5.203125 -7.4375 C 5.203125 -7.664062 5.160156 -7.875 5.078125 -8.0625 C 4.992188 -8.25 4.878906 -8.40625 4.734375 -8.53125 C 4.585938 -8.65625 4.410156 -8.75 4.203125 -8.8125 C 3.992188 -8.882812 3.765625 -8.921875 3.515625 -8.921875 C 3.035156 -8.921875 2.613281 -8.84375 2.25 -8.6875 C 1.882812 -8.539062 1.535156 -8.347656 1.203125 -8.109375 L 0.59375 -8.953125 C 0.757812 -9.085938 0.945312 -9.210938 1.15625 -9.328125 C 1.363281 -9.453125 1.585938 -9.5625 1.828125 -9.65625 C 2.078125 -9.75 2.34375 -9.820312 2.625 -9.875 C 2.90625 -9.925781 3.203125 -9.953125 3.515625 -9.953125 C 4.003906 -9.953125 4.429688 -9.890625 4.796875 -9.765625 C 5.160156 -9.648438 5.460938 -9.484375 5.703125 -9.265625 C 5.953125 -9.046875 6.140625 -8.785156 6.265625 -8.484375 C 6.390625 -8.191406 6.453125 -7.867188 6.453125 -7.515625 Z M 6.453125 -7.515625 "/></g></g></g><g fill="#000000" fill-opacity="1"><g transform="translate(146.733043, 120.214155)"><g><path d="M 6.765625 0 L 0.640625 0 L 0.640625 -1.046875 L 3 -3.609375 C 3.332031 -3.972656 3.628906 -4.300781 3.890625 -4.59375 C 4.160156 -4.894531 4.382812 -5.1875 4.5625 -5.46875 C 4.75 -5.757812 4.890625 -6.050781 4.984375 -6.34375 C 5.085938 -6.632812 5.140625 -6.945312 5.140625 -7.28125 C 5.140625 -7.550781 5.101562 -7.785156 5.03125 -7.984375 C 4.957031 -8.179688 4.847656 -8.347656 4.703125 -8.484375 C 4.554688 -8.628906 4.390625 -8.738281 4.203125 -8.8125 C 4.015625 -8.882812 3.800781 -8.921875 3.5625 -8.921875 C 3.132812 -8.921875 2.75 -8.832031 2.40625 -8.65625 C 2.0625 -8.488281 1.738281 -8.269531 1.4375 -8 L 0.75 -8.796875 C 0.925781 -8.960938 1.113281 -9.113281 1.3125 -9.25 C 1.519531 -9.394531 1.742188 -9.519531 1.984375 -9.625 C 2.222656 -9.726562 2.472656 -9.804688 2.734375 -9.859375 C 3.003906 -9.921875 3.285156 -9.953125 3.578125 -9.953125 C 4.003906 -9.953125 4.390625 -9.890625 4.734375 -9.765625 C 5.078125 -9.648438 5.367188 -9.476562 5.609375 -9.25 C 5.859375 -9.03125 6.046875 -8.753906 6.171875 -8.421875 C 6.304688 -8.097656 6.375 -7.734375 6.375 -7.328125 C 6.375 -6.953125 6.3125 -6.59375 6.1875 -6.25 C 6.070312 -5.90625 5.910156 -5.566406 5.703125 -5.234375 C 5.492188 -4.898438 5.242188 -4.5625 4.953125 -4.21875 C 4.671875 -3.882812 4.363281 -3.535156 4.03125 -3.171875 L 2.140625 -1.171875 L 2.140625 -1.109375 L 6.765625 -1.109375 Z M 6.765625 0 "/></g></g></g><g fill="#000000" fill-opacity="1"><g transform="translate(178.685107, 120.214155)"><g><path d="M 4.78125 0 L 3.59375 0 L 3.59375 -6.125 C 3.59375 -6.320312 3.59375 -6.53125 3.59375 -6.75 C 3.59375 -6.96875 3.597656 -7.1875 3.609375 -7.40625 C 3.617188 -7.625 3.625 -7.832031 3.625 -8.03125 C 3.632812 -8.226562 3.640625 -8.398438 3.640625 -8.546875 C 3.566406 -8.472656 3.5 -8.40625 3.4375 -8.34375 C 3.382812 -8.289062 3.328125 -8.234375 3.265625 -8.171875 C 3.203125 -8.117188 3.132812 -8.0625 3.0625 -8 C 3 -7.945312 2.921875 -7.878906 2.828125 -7.796875 L 1.84375 -6.984375 L 1.1875 -7.8125 L 3.765625 -9.8125 L 4.78125 -9.8125 Z M 4.78125 0 "/></g></g></g><g clip-path="url(#6255a53eec)"><path stroke-linecap="butt" transform="matrix(0.75, 0, 0, 0.75, 6.445564, 98.010231)" fill-opacity="1" fill="#000000" fill-rule="nonzero" stroke-linejoin="miter" d="M 0.73404 1.470733 L 0.73404 46.158236 M 43.338209 1.470733 L 43.338209 46.158236 M 85.942378 1.470733 L 85.942378 46.158236 M 128.546547 1.470733 L 128.546547 46.158236 M 171.145508 1.470733 L 171.145508 46.158236 M 213.749677 1.470733 L 213.749677 46.158236 M 256.353846 1.470733 L 256.353846 46.158236 M -0.000335392 0.736358 L 257.088221 0.736358 M -0.000335392 46.892611 L 257.088221 46.892611 " stroke="#000000" stroke-width="1.473084" stroke-opacity="1" stroke-miterlimit="4"/></g><path stroke-linecap="butt" transform="matrix(0, 0.75, -0.75, 0, 120.976035, 48.990234)" fill="none" stroke-linejoin="miter" d="M 1.497396 1.499296 L 63.861983 1.499296 " stroke="#000000" stroke-width="3" stroke-opacity="1" stroke-miterlimit="4"/><path stroke-linecap="round" transform="matrix(0, 0.75, -0.75, 0, 120.976035, 48.990234)" fill="none" stroke-linejoin="round" d="M 7.497396 -3.000704 L 1.497396 1.499296 L 7.497396 5.999297 " stroke="#000000" stroke-width="3" stroke-opacity="1" stroke-miterlimit="4"/><path stroke-linecap="round" transform="matrix(0, 0.75, -0.75, 0, 120.976035, 48.990234)" fill="none" stroke-linejoin="round" d="M 57.861983 -3.000704 L 63.861983 1.499296 L 57.861983 5.999297 " stroke="#000000" stroke-width="3" stroke-opacity="1" stroke-miterlimit="4"/><path stroke-linecap="butt" transform="matrix(0, 0.75, -0.75, 0, 152.356443, 48.990234)" fill="none" stroke-linejoin="miter" d="M 1.497396 1.501299 L 63.861983 1.501299 " stroke="#000000" stroke-width="3" stroke-opacity="1" stroke-miterlimit="4"/><path stroke-linecap="round" transform="matrix(0, 0.75, -0.75, 0, 152.356443, 48.990234)" fill="none" stroke-linejoin="round" d="M 7.497396 -2.998701 L 1.497396 1.501299 L 7.497396 6.0013 " stroke="#000000" stroke-width="3" stroke-opacity="1" stroke-miterlimit="4"/><path stroke-linecap="round" transform="matrix(0, 0.75, -0.75, 0, 152.356443, 48.990234)" fill="none" stroke-linejoin="round" d="M 57.861983 -2.998701 L 63.861983 1.501299 L 57.861983 6.0013 " stroke="#000000" stroke-width="3" stroke-opacity="1" stroke-miterlimit="4"/><path stroke-linecap="butt" transform="matrix(0, 0.75, -0.75, 0, 185.145066, 48.990234)" fill="none" stroke-linejoin="miter" d="M 1.497396 1.500713 L 63.861983 1.500713 " stroke="#000000" stroke-width="3" stroke-opacity="1" stroke-miterlimit="4"/><path stroke-linecap="round" transform="matrix(0, 0.75, -0.75, 0, 185.145066, 48.990234)" fill="none" stroke-linejoin="round" d="M 7.497396 -2.999287 L 1.497396 1.500713 L 7.497396 6.000713 " stroke="#000000" stroke-width="3" stroke-opacity="1" stroke-miterlimit="4"/><path stroke-linecap="round" transform="matrix(0, 0.75, -0.75, 0, 185.145066, 48.990234)" fill="none" stroke-linejoin="round" d="M 57.861983 -2.999287 L 63.861983 1.500713 L 57.861983 6.000713 " stroke="#000000" stroke-width="3" stroke-opacity="1" stroke-miterlimit="4"/></svg>